<?xml version="1.0" encoding="utf-8" standalone="no"?>
<!DOCTYPE svg PUBLIC "-//W3C//DTD SVG 1.1//EN"
  "http://www.w3.org/Graphics/SVG/1.1/DTD/svg11.dtd">
<svg xmlns:xlink="http://www.w3.org/1999/xlink" width="388.6615pt" height="352.570477pt" viewBox="0 0 388.6615 352.570477" xmlns="http://www.w3.org/2000/svg" version="1.1">
 <metadata>
  <rdf:RDF xmlns:dc="http://purl.org/dc/elements/1.1/" xmlns:cc="http://creativecommons.org/ns#" xmlns:rdf="http://www.w3.org/1999/02/22-rdf-syntax-ns#">
   <cc:Work>
    <dc:type rdf:resource="http://purl.org/dc/dcmitype/StillImage"/>
    <dc:date>2026-07-03T12:49:35.870485</dc:date>
    <dc:format>image/svg+xml</dc:format>
    <dc:creator>
     <cc:Agent>
      <dc:title>Matplotlib v3.10.1, https://matplotlib.org/</dc:title>
     </cc:Agent>
    </dc:creator>
   </cc:Work>
  </rdf:RDF>
 </metadata>
 <defs>
  <style type="text/css">*{stroke-linejoin: round; stroke-linecap: butt}</style>
 </defs>
 <g id="figure_1">
  <g id="patch_1">
   <path d="M 0 352.570477 
L 388.6615 352.570477 
L 388.6615 0 
L 0 0 
z
" style="fill: #ffffff"/>
  </g>
  <g id="axes_1">
   <g id="patch_2">
    <path d="M 39.11775 279.370581 
L 381.4615 279.370581 
L 381.4615 21.073594 
L 39.11775 21.073594 
z
" style="fill: #ffffff"/>
   </g>
   <g id="matplotlib.axis_1">
    <g id="xtick_1">
     <g id="line2d_1">
      <defs>
       <path id="m0044849768" d="M 0 0 
L 0 5 
" style="stroke: #4b5563"/>
      </defs>
      <g>
       <use xlink:href="#m0044849768" x="96.175042" y="279.370581" style="fill: #4b5563; stroke: #4b5563"/>
      </g>
     </g>
     <g id="text_1">
      <text style="font-size: 8.8px; font-family: 'Arial', 'DejaVu Sans', 'Liberation Sans', 'Bitstream Vera Sans', sans-serif; fill: #1a1a1a" transform="translate(78.586158 330.798327) rotate(-45)">(29.999, 40.0]</text>
     </g>
    </g>
    <g id="xtick_2">
     <g id="line2d_2">
      <g>
       <use xlink:href="#m0044849768" x="210.289625" y="279.370581" style="fill: #4b5563; stroke: #4b5563"/>
      </g>
     </g>
     <g id="text_2">
      <text style="font-size: 8.8px; font-family: 'Arial', 'DejaVu Sans', 'Liberation Sans', 'Bitstream Vera Sans', sans-serif; fill: #1a1a1a" transform="translate(196.161057 323.877696) rotate(-45)">(40.0, 50.0]</text>
     </g>
    </g>
    <g id="xtick_3">
     <g id="line2d_3">
      <g>
       <use xlink:href="#m0044849768" x="324.404208" y="279.370581" style="fill: #4b5563; stroke: #4b5563"/>
      </g>
     </g>
     <g id="text_3">
      <text style="font-size: 8.8px; font-family: 'Arial', 'DejaVu Sans', 'Liberation Sans', 'Bitstream Vera Sans', sans-serif; fill: #1a1a1a" transform="translate(310.27564 323.877696) rotate(-45)">(50.0, 60.0]</text>
     </g>
    </g>
    <g id="text_4">
     <text style="font-size: 10px; font-family: 'Arial', 'DejaVu Sans', 'Liberation Sans', 'Bitstream Vera Sans', sans-serif; text-anchor: middle; fill: #262626" x="210.289625" y="343.265789" transform="rotate(-0 210.289625 343.265789)">Age bin</text>
    </g>
   </g>
   <g id="matplotlib.axis_2">
    <g id="ytick_1">
     <g id="line2d_4">
      <defs>
       <path id="m87094302a8" d="M 0 0 
L -5 0 
" style="stroke: #4b5563"/>
      </defs>
      <g>
       <use xlink:href="#m87094302a8" x="39.11775" y="277.046978" style="fill: #4b5563; stroke: #4b5563"/>
      </g>
     </g>
     <g id="text_5">
      <text style="font-size: 8.8px; font-family: 'Arial', 'DejaVu Sans', 'Liberation Sans', 'Bitstream Vera Sans', sans-serif; text-anchor: end; fill: #1a1a1a" x="30.61775" y="280.196416" transform="rotate(-0 30.61775 280.196416)">−5</text>
     </g>
    </g>
    <g id="ytick_2">
     <g id="line2d_5">
      <g>
       <use xlink:href="#m87094302a8" x="39.11775" y="219.753932" style="fill: #4b5563; stroke: #4b5563"/>
      </g>
     </g>
     <g id="text_6">
      <text style="font-size: 8.8px; font-family: 'Arial', 'DejaVu Sans', 'Liberation Sans', 'Bitstream Vera Sans', sans-serif; text-anchor: end; fill: #1a1a1a" x="30.61775" y="222.903369" transform="rotate(-0 30.61775 222.903369)">0</text>
     </g>
    </g>
    <g id="ytick_3">
     <g id="line2d_6">
      <g>
       <use xlink:href="#m87094302a8" x="39.11775" y="162.460885" style="fill: #4b5563; stroke: #4b5563"/>
      </g>
     </g>
     <g id="text_7">
      <text style="font-size: 8.8px; font-family: 'Arial', 'DejaVu Sans', 'Liberation Sans', 'Bitstream Vera Sans', sans-serif; text-anchor: end; fill: #1a1a1a" x="30.61775" y="165.610322" transform="rotate(-0 30.61775 165.610322)">5</text>
     </g>
    </g>
    <g id="ytick_4">
     <g id="line2d_7">
      <g>
       <use xlink:href="#m87094302a8" x="39.11775" y="105.167838" style="fill: #4b5563; stroke: #4b5563"/>
      </g>
     </g>
     <g id="text_8">
      <text style="font-size: 8.8px; font-family: 'Arial', 'DejaVu Sans', 'Liberation Sans', 'Bitstream Vera Sans', sans-serif; text-anchor: end; fill: #1a1a1a" x="30.61775" y="108.317276" transform="rotate(-0 30.61775 108.317276)">10</text>
     </g>
    </g>
    <g id="ytick_5">
     <g id="line2d_8">
      <g>
       <use xlink:href="#m87094302a8" x="39.11775" y="47.874791" style="fill: #4b5563; stroke: #4b5563"/>
      </g>
     </g>
     <g id="text_9">
      <text style="font-size: 8.8px; font-family: 'Arial', 'DejaVu Sans', 'Liberation Sans', 'Bitstream Vera Sans', sans-serif; text-anchor: end; fill: #1a1a1a" x="30.61775" y="51.024229" transform="rotate(-0 30.61775 51.024229)">15</text>
     </g>
    </g>
    <g id="text_10">
     <text style="font-size: 10px; font-family: 'Arial', 'DejaVu Sans', 'Liberation Sans', 'Bitstream Vera Sans', sans-serif; text-anchor: middle; fill: #262626" x="14.479688" y="150.222087" transform="rotate(-90 14.479688 150.222087)">Residual (years)</text>
    </g>
   </g>
   <g id="FillBetweenPolyCollection_1">
    <defs>
     <path id="ma4471cbadb" d="M 364.630308 -84.940668 
L 284.178109 -84.940668 
L 283.954366 -85.162374 
L 283.735447 -85.384081 
L 283.521368 -85.605787 
L 283.312143 -85.827493 
L 283.107782 -86.049199 
L 282.908295 -86.270906 
L 282.713687 -86.492612 
L 282.523959 -86.714318 
L 282.339111 -86.936025 
L 282.159141 -87.157731 
L 281.984043 -87.379437 
L 281.81381 -87.601144 
L 281.648433 -87.82285 
L 281.487899 -88.044556 
L 281.332195 -88.266263 
L 281.181306 -88.487969 
L 281.035215 -88.709675 
L 280.893903 -88.931382 
L 280.75735 -89.153088 
L 280.625536 -89.374794 
L 280.498438 -89.5965 
L 280.376034 -89.818207 
L 280.258299 -90.039913 
L 280.145209 -90.261619 
L 280.036739 -90.483326 
L 279.932864 -90.705032 
L 279.833558 -90.926738 
L 279.738796 -91.148445 
L 279.648551 -91.370151 
L 279.562799 -91.591857 
L 279.481515 -91.813564 
L 279.404673 -92.03527 
L 279.332249 -92.256976 
L 279.264221 -92.478683 
L 279.200565 -92.700389 
L 279.141259 -92.922095 
L 279.086283 -93.143801 
L 279.035617 -93.365508 
L 278.989241 -93.587214 
L 278.947139 -93.80892 
L 278.909295 -94.030627 
L 278.875694 -94.252333 
L 278.846322 -94.474039 
L 278.821169 -94.695746 
L 278.800223 -94.917452 
L 278.783477 -95.139158 
L 278.770923 -95.360865 
L 278.762557 -95.582571 
L 278.758375 -95.804277 
L 278.758375 -96.025984 
L 278.762557 -96.24769 
L 278.770923 -96.469396 
L 278.783477 -96.691102 
L 278.800223 -96.912809 
L 278.821169 -97.134515 
L 278.846322 -97.356221 
L 278.875694 -97.577928 
L 278.909295 -97.799634 
L 278.947139 -98.02134 
L 278.989241 -98.243047 
L 279.035617 -98.464753 
L 279.086283 -98.686459 
L 279.141259 -98.908166 
L 279.200565 -99.129872 
L 279.264221 -99.351578 
L 279.332249 -99.573285 
L 279.404673 -99.794991 
L 279.481515 -100.016697 
L 279.562799 -100.238403 
L 279.648551 -100.46011 
L 279.738796 -100.681816 
L 279.833558 -100.903522 
L 279.932864 -101.125229 
L 280.036739 -101.346935 
L 280.145209 -101.568641 
L 280.258299 -101.790348 
L 280.376034 -102.012054 
L 280.498438 -102.23376 
L 280.625536 -102.455467 
L 280.75735 -102.677173 
L 280.893903 -102.898879 
L 281.035215 -103.120586 
L 281.181306 -103.342292 
L 281.332195 -103.563998 
L 281.487899 -103.785704 
L 281.648433 -104.007411 
L 281.81381 -104.229117 
L 281.984043 -104.450823 
L 282.159141 -104.67253 
L 282.339111 -104.894236 
L 282.523959 -105.115942 
L 282.713687 -105.337649 
L 282.908295 -105.559355 
L 283.107782 -105.781061 
L 283.312143 -106.002768 
L 283.521368 -106.224474 
L 283.735447 -106.44618 
L 283.954366 -106.667887 
L 284.178109 -106.889593 
L 364.630308 -106.889593 
L 364.630308 -106.889593 
L 364.85405 -106.667887 
L 365.07297 -106.44618 
L 365.287049 -106.224474 
L 365.496274 -106.002768 
L 365.700634 -105.781061 
L 365.900121 -105.559355 
L 366.09473 -105.337649 
L 366.284458 -105.115942 
L 366.469306 -104.894236 
L 366.649276 -104.67253 
L 366.824374 -104.450823 
L 366.994606 -104.229117 
L 367.159984 -104.007411 
L 367.320518 -103.785704 
L 367.476221 -103.563998 
L 367.62711 -103.342292 
L 367.773202 -103.120586 
L 367.914514 -102.898879 
L 368.051066 -102.677173 
L 368.18288 -102.455467 
L 368.309978 -102.23376 
L 368.432383 -102.012054 
L 368.550118 -101.790348 
L 368.663208 -101.568641 
L 368.771678 -101.346935 
L 368.875553 -101.125229 
L 368.974859 -100.903522 
L 369.069621 -100.681816 
L 369.159865 -100.46011 
L 369.245617 -100.238403 
L 369.326902 -100.016697 
L 369.403744 -99.794991 
L 369.476167 -99.573285 
L 369.544196 -99.351578 
L 369.607852 -99.129872 
L 369.667157 -98.908166 
L 369.722134 -98.686459 
L 369.7728 -98.464753 
L 369.819176 -98.243047 
L 369.861277 -98.02134 
L 369.899122 -97.799634 
L 369.932723 -97.577928 
L 369.962094 -97.356221 
L 369.987248 -97.134515 
L 370.008193 -96.912809 
L 370.02494 -96.691102 
L 370.037493 -96.469396 
L 370.045859 -96.24769 
L 370.050042 -96.025984 
L 370.050042 -95.804277 
L 370.045859 -95.582571 
L 370.037493 -95.360865 
L 370.02494 -95.139158 
L 370.008193 -94.917452 
L 369.987248 -94.695746 
L 369.962094 -94.474039 
L 369.932723 -94.252333 
L 369.899122 -94.030627 
L 369.861277 -93.80892 
L 369.819176 -93.587214 
L 369.7728 -93.365508 
L 369.722134 -93.143801 
L 369.667157 -92.922095 
L 369.607852 -92.700389 
L 369.544196 -92.478683 
L 369.476167 -92.256976 
L 369.403744 -92.03527 
L 369.326902 -91.813564 
L 369.245617 -91.591857 
L 369.159865 -91.370151 
L 369.069621 -91.148445 
L 368.974859 -90.926738 
L 368.875553 -90.705032 
L 368.771678 -90.483326 
L 368.663208 -90.261619 
L 368.550118 -90.039913 
L 368.432383 -89.818207 
L 368.309978 -89.5965 
L 368.18288 -89.374794 
L 368.051066 -89.153088 
L 367.914514 -88.931382 
L 367.773202 -88.709675 
L 367.62711 -88.487969 
L 367.476221 -88.266263 
L 367.320518 -88.044556 
L 367.159984 -87.82285 
L 366.994606 -87.601144 
L 366.824374 -87.379437 
L 366.649276 -87.157731 
L 366.469306 -86.936025 
L 366.284458 -86.714318 
L 366.09473 -86.492612 
L 365.900121 -86.270906 
L 365.700634 -86.049199 
L 365.496274 -85.827493 
L 365.287049 -85.605787 
L 365.07297 -85.384081 
L 364.85405 -85.162374 
L 364.630308 -84.940668 
z
" style="stroke: #333333"/>
    </defs>
    <g clip-path="url(#p92924e96ea)">
     <use xlink:href="#ma4471cbadb" x="0" y="352.570477" style="fill: #357474; stroke: #333333"/>
    </g>
   </g>
   <g id="line2d_9">
    <path d="M 50.529208 32.814366 
L 141.820875 32.814366 
" clip-path="url(#p92924e96ea)" style="fill: none; stroke: #333333; stroke-linecap: round"/>
   </g>
   <g id="line2d_10">
    <path d="M 164.643792 195.255859 
L 255.935458 195.255859 
" clip-path="url(#p92924e96ea)" style="fill: none; stroke: #333333; stroke-linecap: round"/>
   </g>
   <g id="line2d_11">
    <path d="M 280.063857 262.142578 
L 368.74456 262.142578 
" clip-path="url(#p92924e96ea)" style="fill: none; stroke-dasharray: 1.25,0.75; stroke-dashoffset: 0; stroke: #333333"/>
   </g>
   <g id="line2d_12">
    <path d="M 278.758375 256.655346 
L 370.050042 256.655346 
" clip-path="url(#p92924e96ea)" style="fill: none; stroke-dasharray: 2.5,1; stroke-dashoffset: 0; stroke: #333333"/>
   </g>
   <g id="line2d_13">
    <path d="M 280.063857 251.168115 
L 368.74456 251.168115 
" clip-path="url(#p92924e96ea)" style="fill: none; stroke-dasharray: 1.25,0.75; stroke-dashoffset: 0; stroke: #333333"/>
   </g>
   <g id="line2d_14">
    <path d="M 39.11775 219.753932 
L 381.4615 219.753932 
" clip-path="url(#p92924e96ea)" style="fill: none; stroke-dasharray: 3.7,1.6; stroke-dashoffset: 0; stroke: #4b5563"/>
   </g>
   <g id="patch_3">
    <path d="M 39.11775 279.370581 
L 39.11775 21.073594 
" style="fill: none; stroke: #4b5563; stroke-width: 0.8; stroke-linejoin: miter; stroke-linecap: square"/>
   </g>
   <g id="patch_4">
    <path d="M 39.11775 279.370581 
L 381.4615 279.370581 
" style="fill: none; stroke: #4b5563; stroke-width: 0.8; stroke-linejoin: miter; stroke-linecap: square"/>
   </g>
   <g id="PathCollection_1">
    <defs>
     <path id="m35af5b01e3" d="M 0 1 
C 0.265203 1 0.51958 0.894634 0.707107 0.707107 
C 0.894634 0.51958 1 0.265203 1 0 
C 1 -0.265203 0.894634 -0.51958 0.707107 -0.707107 
C 0.51958 -0.894634 0.265203 -1 0 -1 
C -0.265203 -1 -0.51958 -0.894634 -0.707107 -0.707107 
C -0.894634 -0.51958 -1 -0.265203 -1 0 
C -1 0.265203 -0.894634 0.51958 -0.707107 0.707107 
C -0.51958 0.894634 -0.265203 1 0 1 
z
"/>
    </defs>
    <g clip-path="url(#p92924e96ea)">
     <use xlink:href="#m35af5b01e3" x="96.175042" y="32.814366" style="fill: #1a1a1a; fill-opacity: 0.4"/>
    </g>
   </g>
   <g id="PathCollection_2">
    <g clip-path="url(#p92924e96ea)">
     <use xlink:href="#m35af5b01e3" x="210.289625" y="195.255859" style="fill: #1a1a1a; fill-opacity: 0.4"/>
    </g>
   </g>
   <g id="PathCollection_3">
    <g clip-path="url(#p92924e96ea)">
     <use xlink:href="#m35af5b01e3" x="338.928927" y="267.629809" style="fill: #1a1a1a; fill-opacity: 0.4"/>
     <use xlink:href="#m35af5b01e3" x="343.001663" y="245.680884" style="fill: #1a1a1a; fill-opacity: 0.4"/>
    </g>
   </g>
   <g id="text_11">
    <text style="font-weight: 700; font-size: 12px; font-family: 'Arial', 'DejaVu Sans', 'Liberation Sans', 'Bitstream Vera Sans', sans-serif; text-anchor: start; fill: #1a1a1a" x="11.73025" y="19.331089" transform="rotate(-0 11.73025 19.331089)">2e</text>
   </g>
   <g id="text_12">
    <text style="font-size: 11px; font-family: 'Arial', 'DejaVu Sans', 'Liberation Sans', 'Bitstream Vera Sans', sans-serif; text-anchor: middle; fill: #262626" x="210.289625" y="15.073594" transform="rotate(-0 210.289625 15.073594)">Residual Distribution</text>
   </g>
  </g>
 </g>
 <defs>
  <clipPath id="p92924e96ea">
   <rect x="39.11775" y="21.073594" width="342.34375" height="258.296987"/>
  </clipPath>
 </defs>
</svg>
