<?xml version="1.0" encoding="utf-8" standalone="no"?>
<!DOCTYPE svg PUBLIC "-//W3C//DTD SVG 1.1//EN"
  "http://www.w3.org/Graphics/SVG/1.1/DTD/svg11.dtd">
<svg xmlns:xlink="http://www.w3.org/1999/xlink" width="388.553119pt" height="352.664906pt" viewBox="0 0 388.553119 352.664906" xmlns="http://www.w3.org/2000/svg" version="1.1">
 <metadata>
  <rdf:RDF xmlns:dc="http://purl.org/dc/elements/1.1/" xmlns:cc="http://creativecommons.org/ns#" xmlns:rdf="http://www.w3.org/1999/02/22-rdf-syntax-ns#">
   <cc:Work>
    <dc:type rdf:resource="http://purl.org/dc/dcmitype/StillImage"/>
    <dc:date>2026-07-03T12:49:36.916643</dc:date>
    <dc:format>image/svg+xml</dc:format>
    <dc:creator>
     <cc:Agent>
      <dc:title>Matplotlib v3.10.1, https://matplotlib.org/</dc:title>
     </cc:Agent>
    </dc:creator>
   </cc:Work>
  </rdf:RDF>
 </metadata>
 <defs>
  <style type="text/css">*{stroke-linejoin: round; stroke-linecap: butt}</style>
 </defs>
 <g id="figure_1">
  <g id="patch_1">
   <path d="M 0 352.664906 
L 388.553119 352.664906 
L 388.553119 0 
L 0 0 
z
" style="fill: #ffffff"/>
  </g>
  <g id="axes_1">
   <g id="patch_2">
    <path d="M 46.21 315.532656 
L 354.173891 315.532656 
L 354.173891 21.207656 
L 46.21 21.207656 
z
" style="fill: #ffffff"/>
   </g>
   <g id="matplotlib.axis_1">
    <g id="xtick_1">
     <g id="line2d_1">
      <defs>
       <path id="mdb2c6f2e51" d="M 0 0 
L 0 5 
" style="stroke: #4b5563"/>
      </defs>
      <g>
       <use xlink:href="#mdb2c6f2e51" x="103.239224" y="315.532656" style="fill: #4b5563; stroke: #4b5563"/>
      </g>
     </g>
     <g id="text_1">
      <text style="font-size: 8.8px; font-family: 'Arial', 'DejaVu Sans', 'Liberation Sans', 'Bitstream Vera Sans', sans-serif; text-anchor: middle; fill: #1a1a1a" x="103.239224" y="330.331531" transform="rotate(-0 103.239224 330.331531)">−0.05</text>
     </g>
    </g>
    <g id="xtick_2">
     <g id="line2d_2">
      <g>
       <use xlink:href="#mdb2c6f2e51" x="166.889657" y="315.532656" style="fill: #4b5563; stroke: #4b5563"/>
      </g>
     </g>
     <g id="text_2">
      <text style="font-size: 8.8px; font-family: 'Arial', 'DejaVu Sans', 'Liberation Sans', 'Bitstream Vera Sans', sans-serif; text-anchor: middle; fill: #1a1a1a" x="166.889657" y="330.331531" transform="rotate(-0 166.889657 330.331531)">0.00</text>
     </g>
    </g>
    <g id="xtick_3">
     <g id="line2d_3">
      <g>
       <use xlink:href="#mdb2c6f2e51" x="230.540089" y="315.532656" style="fill: #4b5563; stroke: #4b5563"/>
      </g>
     </g>
     <g id="text_3">
      <text style="font-size: 8.8px; font-family: 'Arial', 'DejaVu Sans', 'Liberation Sans', 'Bitstream Vera Sans', sans-serif; text-anchor: middle; fill: #1a1a1a" x="230.540089" y="330.331531" transform="rotate(-0 230.540089 330.331531)">0.05</text>
     </g>
    </g>
    <g id="xtick_4">
     <g id="line2d_4">
      <g>
       <use xlink:href="#mdb2c6f2e51" x="294.190521" y="315.532656" style="fill: #4b5563; stroke: #4b5563"/>
      </g>
     </g>
     <g id="text_4">
      <text style="font-size: 8.8px; font-family: 'Arial', 'DejaVu Sans', 'Liberation Sans', 'Bitstream Vera Sans', sans-serif; text-anchor: middle; fill: #1a1a1a" x="294.190521" y="330.331531" transform="rotate(-0 294.190521 330.331531)">0.10</text>
     </g>
    </g>
    <g id="text_5">
     <text style="font-size: 10px; font-family: 'Arial', 'DejaVu Sans', 'Liberation Sans', 'Bitstream Vera Sans', sans-serif; text-anchor: middle; fill: #262626" x="200.191945" y="343.360219" transform="rotate(-0 200.191945 343.360219)">Mean corr(age)</text>
    </g>
   </g>
   <g id="matplotlib.axis_2">
    <g id="ytick_1">
     <g id="line2d_5">
      <defs>
       <path id="m44c4c164e2" d="M 0 0 
L -5 0 
" style="stroke: #4b5563"/>
      </defs>
      <g>
       <use xlink:href="#m44c4c164e2" x="46.21" y="279.025851" style="fill: #4b5563; stroke: #4b5563"/>
      </g>
     </g>
     <g id="text_6">
      <text style="font-size: 8.8px; font-family: 'Arial', 'DejaVu Sans', 'Liberation Sans', 'Bitstream Vera Sans', sans-serif; text-anchor: end; fill: #1a1a1a" x="37.71" y="282.175288" transform="rotate(-0 37.71 282.175288)">0.15</text>
     </g>
    </g>
    <g id="ytick_2">
     <g id="line2d_6">
      <g>
       <use xlink:href="#m44c4c164e2" x="46.21" y="217.212369" style="fill: #4b5563; stroke: #4b5563"/>
      </g>
     </g>
     <g id="text_7">
      <text style="font-size: 8.8px; font-family: 'Arial', 'DejaVu Sans', 'Liberation Sans', 'Bitstream Vera Sans', sans-serif; text-anchor: end; fill: #1a1a1a" x="37.71" y="220.361807" transform="rotate(-0 37.71 220.361807)">0.20</text>
     </g>
    </g>
    <g id="ytick_3">
     <g id="line2d_7">
      <g>
       <use xlink:href="#m44c4c164e2" x="46.21" y="155.398888" style="fill: #4b5563; stroke: #4b5563"/>
      </g>
     </g>
     <g id="text_8">
      <text style="font-size: 8.8px; font-family: 'Arial', 'DejaVu Sans', 'Liberation Sans', 'Bitstream Vera Sans', sans-serif; text-anchor: end; fill: #1a1a1a" x="37.71" y="158.548325" transform="rotate(-0 37.71 158.548325)">0.25</text>
     </g>
    </g>
    <g id="ytick_4">
     <g id="line2d_8">
      <g>
       <use xlink:href="#m44c4c164e2" x="46.21" y="93.585406" style="fill: #4b5563; stroke: #4b5563"/>
      </g>
     </g>
     <g id="text_9">
      <text style="font-size: 8.8px; font-family: 'Arial', 'DejaVu Sans', 'Liberation Sans', 'Bitstream Vera Sans', sans-serif; text-anchor: end; fill: #1a1a1a" x="37.71" y="96.734844" transform="rotate(-0 37.71 96.734844)">0.30</text>
     </g>
    </g>
    <g id="ytick_5">
     <g id="line2d_9">
      <g>
       <use xlink:href="#m44c4c164e2" x="46.21" y="31.771925" style="fill: #4b5563; stroke: #4b5563"/>
      </g>
     </g>
     <g id="text_10">
      <text style="font-size: 8.8px; font-family: 'Arial', 'DejaVu Sans', 'Liberation Sans', 'Bitstream Vera Sans', sans-serif; text-anchor: end; fill: #1a1a1a" x="37.71" y="34.921363" transform="rotate(-0 37.71 34.921363)">0.35</text>
     </g>
    </g>
    <g id="text_11">
     <text style="font-size: 10px; font-family: 'Arial', 'DejaVu Sans', 'Liberation Sans', 'Bitstream Vera Sans', sans-serif; text-anchor: middle; fill: #262626" x="14.479688" y="168.370156" transform="rotate(-90 14.479688 168.370156)">Mean |coef|</text>
    </g>
   </g>
   <g id="PathCollection_1">
    <path d="M 186.347506 221.190026 
C 187.875592 221.190026 189.341296 220.582911 190.421816 219.502391 
C 191.502336 218.421872 192.10945 216.956167 192.10945 215.428082 
C 192.10945 213.899996 191.502336 212.434291 190.421816 211.353772 
C 189.341296 210.273252 187.875592 209.666138 186.347506 209.666138 
C 184.819421 209.666138 183.353716 210.273252 182.273196 211.353772 
C 181.192677 212.434291 180.585562 213.899996 180.585562 215.428082 
C 180.585562 216.956167 181.192677 218.421872 182.273196 219.502391 
C 183.353716 220.582911 184.819421 221.190026 186.347506 221.190026 
z
" clip-path="url(#p4a014c369d)" style="fill: #5a8f5a; fill-opacity: 0.8; stroke: #ffffff; stroke-opacity: 0.8; stroke-width: 0.6"/>
    <path d="M 60.208359 204.761696 
C 61.5065 204.761696 62.751648 204.245939 63.669572 203.328014 
C 64.587497 202.410089 65.103254 201.164942 65.103254 199.8668 
C 65.103254 198.568659 64.587497 197.323511 63.669572 196.405587 
C 62.751648 195.487662 61.5065 194.971905 60.208359 194.971905 
C 58.910217 194.971905 57.66507 195.487662 56.747145 196.405587 
C 55.82922 197.323511 55.313463 198.568659 55.313463 199.8668 
C 55.313463 201.164942 55.82922 202.410089 56.747145 203.328014 
C 57.66507 204.245939 58.910217 204.761696 60.208359 204.761696 
z
" clip-path="url(#p4a014c369d)" style="fill: #1a1a1a; fill-opacity: 0.8; stroke: #ffffff; stroke-opacity: 0.8; stroke-width: 0.6"/>
    <path d="M 175.398384 226.310148 
C 176.906081 226.310148 178.352231 225.711133 179.418334 224.64503 
C 180.484437 223.578927 181.083452 222.132777 181.083452 220.62508 
C 181.083452 219.117382 180.484437 217.671233 179.418334 216.605129 
C 178.352231 215.539026 176.906081 214.940012 175.398384 214.940012 
C 173.890686 214.940012 172.444537 215.539026 171.378433 216.605129 
C 170.31233 217.671233 169.713316 219.117382 169.713316 220.62508 
C 169.713316 222.132777 170.31233 223.578927 171.378433 224.64503 
C 172.444537 225.711133 173.890686 226.310148 175.398384 226.310148 
z
" clip-path="url(#p4a014c369d)" style="fill: #4b5563; fill-opacity: 0.8; stroke: #ffffff; stroke-opacity: 0.8; stroke-width: 0.6"/>
    <path d="M 188.217369 209.49858 
C 190.514095 209.49858 192.717063 208.586081 194.341093 206.962051 
C 195.965124 205.33802 196.877623 203.135052 196.877623 200.838326 
C 196.877623 198.5416 195.965124 196.338632 194.341093 194.714602 
C 192.717063 193.090571 190.514095 192.178072 188.217369 192.178072 
C 185.920643 192.178072 183.717675 193.090571 182.093645 194.714602 
C 180.469614 196.338632 179.557115 198.5416 179.557115 200.838326 
C 179.557115 203.135052 180.469614 205.33802 182.093645 206.962051 
C 183.717675 208.586081 185.920643 209.49858 188.217369 209.49858 
z
" clip-path="url(#p4a014c369d)" style="fill: #6e6e6e; fill-opacity: 0.8; stroke: #ffffff; stroke-opacity: 0.8; stroke-width: 0.6"/>
    <path d="M 212.174962 306.912398 
C 213.436838 306.912398 214.647201 306.411049 215.539482 305.518768 
C 216.431764 304.626487 216.933113 303.416124 216.933113 302.154247 
C 216.933113 300.892371 216.431764 299.682008 215.539482 298.789726 
C 214.647201 297.897445 213.436838 297.396096 212.174962 297.396096 
C 210.913085 297.396096 209.702722 297.897445 208.810441 298.789726 
C 207.91816 299.682008 207.416811 300.892371 207.416811 302.154247 
C 207.416811 303.416124 207.91816 304.626487 208.810441 305.518768 
C 209.702722 306.411049 210.913085 306.912398 212.174962 306.912398 
z
" clip-path="url(#p4a014c369d)" style="fill: #2f5d8c; fill-opacity: 0.8; stroke: #ffffff; stroke-opacity: 0.8; stroke-width: 0.6"/>
    <path d="M 175.836051 186.254468 
C 177.07316 186.254468 178.259767 185.762959 179.134536 184.888191 
C 180.009304 184.013423 180.500813 182.826816 180.500813 181.589706 
C 180.500813 180.352597 180.009304 179.16599 179.134536 178.291222 
C 178.259767 177.416454 177.07316 176.924945 175.836051 176.924945 
C 174.598942 176.924945 173.412335 177.416454 172.537567 178.291222 
C 171.662798 179.16599 171.17129 180.352597 171.17129 181.589706 
C 171.17129 182.826816 171.662798 184.013423 172.537567 184.888191 
C 173.412335 185.762959 174.598942 186.254468 175.836051 186.254468 
z
" clip-path="url(#p4a014c369d)" style="fill: #4c72b0; fill-opacity: 0.8; stroke: #ffffff; stroke-opacity: 0.8; stroke-width: 0.6"/>
    <path d="M 107.507447 250.317365 
C 108.886503 250.317365 110.209263 249.76946 111.184403 248.79432 
C 112.159543 247.81918 112.707447 246.496421 112.707447 245.117365 
C 112.707447 243.738309 112.159543 242.41555 111.184403 241.44041 
C 110.209263 240.46527 108.886503 239.917365 107.507447 239.917365 
C 106.128391 239.917365 104.805632 240.46527 103.830492 241.44041 
C 102.855352 242.41555 102.307447 243.738309 102.307447 245.117365 
C 102.307447 246.496421 102.855352 247.81918 103.830492 248.79432 
C 104.805632 249.76946 106.128391 250.317365 107.507447 250.317365 
z
" clip-path="url(#p4a014c369d)" style="fill: #c7a44a; fill-opacity: 0.8; stroke: #ffffff; stroke-opacity: 0.8; stroke-width: 0.6"/>
    <path d="M 185.503718 255.787153 
C 186.980306 255.787153 188.396616 255.200499 189.440722 254.156393 
C 190.484827 253.112287 191.071482 251.695977 191.071482 250.219389 
C 191.071482 248.742801 190.484827 247.326491 189.440722 246.282385 
C 188.396616 245.238279 186.980306 244.651625 185.503718 244.651625 
C 184.027129 244.651625 182.61082 245.238279 181.566714 246.282385 
C 180.522608 247.326491 179.935953 248.742801 179.935953 250.219389 
C 179.935953 251.695977 180.522608 253.112287 181.566714 254.156393 
C 182.61082 255.200499 184.027129 255.787153 185.503718 255.787153 
z
" clip-path="url(#p4a014c369d)" style="fill: #b2493e; fill-opacity: 0.8; stroke: #ffffff; stroke-opacity: 0.8; stroke-width: 0.6"/>
    <path d="M 86.442189 173.360189 
C 87.775609 173.360189 89.054596 172.830416 89.997467 171.887545 
C 90.940337 170.944674 91.470111 169.665688 91.470111 168.332267 
C 91.470111 166.998847 90.940337 165.71986 89.997467 164.77699 
C 89.054596 163.834119 87.775609 163.304345 86.442189 163.304345 
C 85.108768 163.304345 83.829782 163.834119 82.886911 164.77699 
C 81.94404 165.71986 81.414267 166.998847 81.414267 168.332267 
C 81.414267 169.665688 81.94404 170.944674 82.886911 171.887545 
C 83.829782 172.830416 85.108768 173.360189 86.442189 173.360189 
z
" clip-path="url(#p4a014c369d)" style="fill: #d07c4e; fill-opacity: 0.8; stroke: #ffffff; stroke-opacity: 0.8; stroke-width: 0.6"/>
    <path d="M 340.175532 39.203424 
C 341.40007 39.203424 342.574619 38.71691 343.440498 37.851031 
C 344.306377 36.985152 344.792891 35.810603 344.792891 34.586065 
C 344.792891 33.361528 344.306377 32.186979 343.440498 31.3211 
C 342.574619 30.455221 341.40007 29.968707 340.175532 29.968707 
C 338.950994 29.968707 337.776446 30.455221 336.910567 31.3211 
C 336.044688 32.186979 335.558174 33.361528 335.558174 34.586065 
C 335.558174 35.810603 336.044688 36.985152 336.910567 37.851031 
C 337.776446 38.71691 338.950994 39.203424 340.175532 39.203424 
z
" clip-path="url(#p4a014c369d)" style="fill: #6c5b7b; fill-opacity: 0.8; stroke: #ffffff; stroke-opacity: 0.8; stroke-width: 0.6"/>
    <path d="M 99.634347 139.599634 
C 101.013403 139.599634 102.336162 139.051729 103.311302 138.076589 
C 104.286442 137.101449 104.834347 135.77869 104.834347 134.399634 
C 104.834347 133.020578 104.286442 131.697819 103.311302 130.722679 
C 102.336162 129.747539 101.013403 129.199634 99.634347 129.199634 
C 98.255291 129.199634 96.932532 129.747539 95.957392 130.722679 
C 94.982252 131.697819 94.434347 133.020578 94.434347 134.399634 
C 94.434347 135.77869 94.982252 137.101449 95.957392 138.076589 
C 96.932532 139.051729 98.255291 139.599634 99.634347 139.599634 
z
" clip-path="url(#p4a014c369d)" style="fill: #8daa91; fill-opacity: 0.8; stroke: #ffffff; stroke-opacity: 0.8; stroke-width: 0.6"/>
    <path d="M 126.827407 230.900709 
C 128.261467 230.900709 129.636984 230.330951 130.651018 229.316917 
C 131.665051 228.302884 132.234809 226.927366 132.234809 225.493306 
C 132.234809 224.059247 131.665051 222.683729 130.651018 221.669696 
C 129.636984 220.655662 128.261467 220.085904 126.827407 220.085904 
C 125.393347 220.085904 124.017829 220.655662 123.003796 221.669696 
C 121.989763 222.683729 121.420005 224.059247 121.420005 225.493306 
C 121.420005 226.927366 121.989763 228.302884 123.003796 229.316917 
C 124.017829 230.330951 125.393347 230.900709 126.827407 230.900709 
z
" clip-path="url(#p4a014c369d)" style="fill: #2a7f7f; fill-opacity: 0.8; stroke: #ffffff; stroke-opacity: 0.8; stroke-width: 0.6"/>
   </g>
   <g id="line2d_10">
    <path d="M 166.889657 315.532656 
L 166.889657 21.207656 
" clip-path="url(#p4a014c369d)" style="fill: none; stroke-dasharray: 3.7,1.6; stroke-dashoffset: 0; stroke: #4b5563"/>
   </g>
   <g id="patch_3">
    <path d="M 46.21 315.532656 
L 46.21 21.207656 
" style="fill: none; stroke: #4b5563; stroke-width: 0.8; stroke-linejoin: miter; stroke-linecap: square"/>
   </g>
   <g id="patch_4">
    <path d="M 46.21 315.532656 
L 354.173891 315.532656 
" style="fill: none; stroke: #4b5563; stroke-width: 0.8; stroke-linejoin: miter; stroke-linecap: square"/>
   </g>
   <g id="text_12">
    <text style="font-size: 8px; font-family: 'Arial', 'DejaVu Sans', 'Liberation Sans', 'Bitstream Vera Sans', sans-serif; text-anchor: start; fill: #262626" x="199.077593" y="217.496207" transform="rotate(-0 199.077593 217.496207)">Alpha</text>
   </g>
   <g id="text_13">
    <text style="font-size: 8px; font-family: 'Arial', 'DejaVu Sans', 'Liberation Sans', 'Bitstream Vera Sans', sans-serif; text-anchor: start; fill: #262626" x="72.938445" y="201.934925" transform="rotate(-0 72.938445 201.934925)">Behavioral</text>
   </g>
   <g id="text_14">
    <text style="font-size: 8px; font-family: 'Arial', 'DejaVu Sans', 'Liberation Sans', 'Bitstream Vera Sans', sans-serif; text-anchor: start; fill: #262626" x="188.12847" y="222.693205" transform="rotate(-0 188.12847 222.693205)">Beta</text>
   </g>
   <g id="text_15">
    <text style="font-size: 8px; font-family: 'Arial', 'DejaVu Sans', 'Liberation Sans', 'Bitstream Vera Sans', sans-serif; text-anchor: start; fill: #262626" x="200.947455" y="202.955201" transform="rotate(-0 200.947455 202.955201)">Composite</text>
   </g>
   <g id="text_16">
    <text style="font-size: 8px; font-family: 'Arial', 'DejaVu Sans', 'Liberation Sans', 'Bitstream Vera Sans', sans-serif; text-anchor: start; fill: #262626" x="224.905048" y="304.222372" transform="rotate(-0 224.905048 304.222372)">Delta</text>
   </g>
   <g id="text_17">
    <text style="font-size: 8px; font-family: 'Arial', 'DejaVu Sans', 'Liberation Sans', 'Bitstream Vera Sans', sans-serif; text-anchor: start; fill: #262626" x="188.566138" y="183.610956" transform="rotate(-0 188.566138 183.610956)">Demographics</text>
   </g>
   <g id="text_18">
    <text style="font-size: 8px; font-family: 'Arial', 'DejaVu Sans', 'Liberation Sans', 'Bitstream Vera Sans', sans-serif; text-anchor: start; fill: #262626" x="120.237534" y="247.18549" transform="rotate(-0 120.237534 247.18549)">ERP Distracted</text>
   </g>
   <g id="text_19">
    <text style="font-size: 8px; font-family: 'Arial', 'DejaVu Sans', 'Liberation Sans', 'Bitstream Vera Sans', sans-serif; text-anchor: start; fill: #262626" x="198.233804" y="252.287514" transform="rotate(-0 198.233804 252.287514)">ERP Inhibit</text>
   </g>
   <g id="text_20">
    <text style="font-size: 8px; font-family: 'Arial', 'DejaVu Sans', 'Liberation Sans', 'Bitstream Vera Sans', sans-serif; text-anchor: start; fill: #262626" x="99.172275" y="170.400392" transform="rotate(-0 99.172275 170.400392)">ERP Undistracted</text>
   </g>
   <g id="text_21">
    <text style="font-size: 8px; font-family: 'Arial', 'DejaVu Sans', 'Liberation Sans', 'Bitstream Vera Sans', sans-serif; text-anchor: start; fill: #262626" x="352.905619" y="36.65419" transform="rotate(-0 352.905619 36.65419)">Gamma</text>
   </g>
   <g id="text_22">
    <text style="font-size: 8px; font-family: 'Arial', 'DejaVu Sans', 'Liberation Sans', 'Bitstream Vera Sans', sans-serif; text-anchor: start; fill: #262626" x="112.364434" y="136.516509" transform="rotate(-0 112.364434 136.516509)">Spectral</text>
   </g>
   <g id="text_23">
    <text style="font-size: 8px; font-family: 'Arial', 'DejaVu Sans', 'Liberation Sans', 'Bitstream Vera Sans', sans-serif; text-anchor: start; fill: #262626" x="139.557493" y="227.561431" transform="rotate(-0 139.557493 227.561431)">Theta</text>
   </g>
   <g id="text_24">
    <text style="font-weight: 700; font-size: 12px; font-family: 'Arial', 'DejaVu Sans', 'Liberation Sans', 'Bitstream Vera Sans', sans-serif; text-anchor: start; fill: #1a1a1a" x="21.572889" y="18.059656" transform="rotate(-0 21.572889 18.059656)">3g</text>
   </g>
   <g id="text_25">
    <text style="font-size: 11px; font-family: 'Arial', 'DejaVu Sans', 'Liberation Sans', 'Bitstream Vera Sans', sans-serif; text-anchor: middle; fill: #262626" x="200.191945" y="15.207656" transform="rotate(-0 200.191945 15.207656)">Age correct vs coefficient strength</text>
   </g>
  </g>
 </g>
 <defs>
  <clipPath id="p4a014c369d">
   <rect x="46.21" y="21.207656" width="307.963891" height="294.325"/>
  </clipPath>
 </defs>
</svg>
