<?xml version="1.0" encoding="utf-8" standalone="no"?>
<!DOCTYPE svg PUBLIC "-//W3C//DTD SVG 1.1//EN"
  "http://www.w3.org/Graphics/SVG/1.1/DTD/svg11.dtd">
<svg xmlns:xlink="http://www.w3.org/1999/xlink" width="388.89025pt" height="352.739906pt" viewBox="0 0 388.89025 352.739906" xmlns="http://www.w3.org/2000/svg" version="1.1">
 <metadata>
  <rdf:RDF xmlns:dc="http://purl.org/dc/elements/1.1/" xmlns:cc="http://creativecommons.org/ns#" xmlns:rdf="http://www.w3.org/1999/02/22-rdf-syntax-ns#">
   <cc:Work>
    <dc:type rdf:resource="http://purl.org/dc/dcmitype/StillImage"/>
    <dc:date>2026-07-03T12:49:36.838536</dc:date>
    <dc:format>image/svg+xml</dc:format>
    <dc:creator>
     <cc:Agent>
      <dc:title>Matplotlib v3.10.1, https://matplotlib.org/</dc:title>
     </cc:Agent>
    </dc:creator>
   </cc:Work>
  </rdf:RDF>
 </metadata>
 <defs>
  <style type="text/css">*{stroke-linejoin: round; stroke-linecap: butt}</style>
 </defs>
 <g id="figure_1">
  <g id="patch_1">
   <path d="M 0 352.739906 
L 388.89025 352.739906 
L 388.89025 0 
L 0 0 
z
" style="fill: #ffffff"/>
  </g>
  <g id="axes_1">
   <g id="patch_2">
    <path d="M 85.484 315.607656 
L 381.69025 315.607656 
L 381.69025 21.207656 
L 85.484 21.207656 
z
" style="fill: #ffffff"/>
   </g>
   <g id="matplotlib.axis_1">
    <g id="xtick_1">
     <g id="line2d_1">
      <defs>
       <path id="m74cd77dd34" d="M 0 0 
L 0 5 
" style="stroke: #4b5563"/>
      </defs>
      <g>
       <use xlink:href="#m74cd77dd34" x="108.95473" y="315.607656" style="fill: #4b5563; stroke: #4b5563"/>
      </g>
     </g>
     <g id="text_1">
      <text style="font-size: 8.8px; font-family: 'Arial', 'DejaVu Sans', 'Liberation Sans', 'Bitstream Vera Sans', sans-serif; text-anchor: middle; fill: #1a1a1a" x="108.95473" y="330.406531" transform="rotate(-0 108.95473 330.406531)">−0.6</text>
     </g>
    </g>
    <g id="xtick_2">
     <g id="line2d_2">
      <g>
       <use xlink:href="#m74cd77dd34" x="152.31972" y="315.607656" style="fill: #4b5563; stroke: #4b5563"/>
      </g>
     </g>
     <g id="text_2">
      <text style="font-size: 8.8px; font-family: 'Arial', 'DejaVu Sans', 'Liberation Sans', 'Bitstream Vera Sans', sans-serif; text-anchor: middle; fill: #1a1a1a" x="152.31972" y="330.406531" transform="rotate(-0 152.31972 330.406531)">−0.4</text>
     </g>
    </g>
    <g id="xtick_3">
     <g id="line2d_3">
      <g>
       <use xlink:href="#m74cd77dd34" x="195.684709" y="315.607656" style="fill: #4b5563; stroke: #4b5563"/>
      </g>
     </g>
     <g id="text_3">
      <text style="font-size: 8.8px; font-family: 'Arial', 'DejaVu Sans', 'Liberation Sans', 'Bitstream Vera Sans', sans-serif; text-anchor: middle; fill: #1a1a1a" x="195.684709" y="330.406531" transform="rotate(-0 195.684709 330.406531)">−0.2</text>
     </g>
    </g>
    <g id="xtick_4">
     <g id="line2d_4">
      <g>
       <use xlink:href="#m74cd77dd34" x="239.049698" y="315.607656" style="fill: #4b5563; stroke: #4b5563"/>
      </g>
     </g>
     <g id="text_4">
      <text style="font-size: 8.8px; font-family: 'Arial', 'DejaVu Sans', 'Liberation Sans', 'Bitstream Vera Sans', sans-serif; text-anchor: middle; fill: #1a1a1a" x="239.049698" y="330.406531" transform="rotate(-0 239.049698 330.406531)">0.0</text>
     </g>
    </g>
    <g id="xtick_5">
     <g id="line2d_5">
      <g>
       <use xlink:href="#m74cd77dd34" x="282.414687" y="315.607656" style="fill: #4b5563; stroke: #4b5563"/>
      </g>
     </g>
     <g id="text_5">
      <text style="font-size: 8.8px; font-family: 'Arial', 'DejaVu Sans', 'Liberation Sans', 'Bitstream Vera Sans', sans-serif; text-anchor: middle; fill: #1a1a1a" x="282.414687" y="330.406531" transform="rotate(-0 282.414687 330.406531)">0.2</text>
     </g>
    </g>
    <g id="xtick_6">
     <g id="line2d_6">
      <g>
       <use xlink:href="#m74cd77dd34" x="325.779676" y="315.607656" style="fill: #4b5563; stroke: #4b5563"/>
      </g>
     </g>
     <g id="text_6">
      <text style="font-size: 8.8px; font-family: 'Arial', 'DejaVu Sans', 'Liberation Sans', 'Bitstream Vera Sans', sans-serif; text-anchor: middle; fill: #1a1a1a" x="325.779676" y="330.406531" transform="rotate(-0 325.779676 330.406531)">0.4</text>
     </g>
    </g>
    <g id="xtick_7">
     <g id="line2d_7">
      <g>
       <use xlink:href="#m74cd77dd34" x="369.144665" y="315.607656" style="fill: #4b5563; stroke: #4b5563"/>
      </g>
     </g>
     <g id="text_7">
      <text style="font-size: 8.8px; font-family: 'Arial', 'DejaVu Sans', 'Liberation Sans', 'Bitstream Vera Sans', sans-serif; text-anchor: middle; fill: #1a1a1a" x="369.144665" y="330.406531" transform="rotate(-0 369.144665 330.406531)">0.6</text>
     </g>
    </g>
    <g id="text_8">
     <text style="font-size: 10px; font-family: 'Arial', 'DejaVu Sans', 'Liberation Sans', 'Bitstream Vera Sans', sans-serif; text-anchor: middle; fill: #262626" x="233.587125" y="343.435219" transform="rotate(-0 233.587125 343.435219)">Correlation with age</text>
    </g>
   </g>
   <g id="matplotlib.axis_2">
    <g id="ytick_1">
     <g id="line2d_8">
      <defs>
       <path id="m596773a7f3" d="M 0 0 
L -5 0 
" style="stroke: #4b5563"/>
      </defs>
      <g>
       <use xlink:href="#m596773a7f3" x="85.484" y="33.474323" style="fill: #4b5563; stroke: #4b5563"/>
      </g>
     </g>
     <g id="text_9">
      <text style="font-size: 8.8px; font-family: 'Arial', 'DejaVu Sans', 'Liberation Sans', 'Bitstream Vera Sans', sans-serif; text-anchor: end; fill: #1a1a1a" x="76.984" y="36.62376" transform="rotate(-0 76.984 36.62376)">Gamma</text>
     </g>
    </g>
    <g id="ytick_2">
     <g id="line2d_9">
      <g>
       <use xlink:href="#m596773a7f3" x="85.484" y="58.007656" style="fill: #4b5563; stroke: #4b5563"/>
      </g>
     </g>
     <g id="text_10">
      <text style="font-size: 8.8px; font-family: 'Arial', 'DejaVu Sans', 'Liberation Sans', 'Bitstream Vera Sans', sans-serif; text-anchor: end; fill: #1a1a1a" x="76.984" y="61.157094" transform="rotate(-0 76.984 61.157094)">Delta</text>
     </g>
    </g>
    <g id="ytick_3">
     <g id="line2d_10">
      <g>
       <use xlink:href="#m596773a7f3" x="85.484" y="82.54099" style="fill: #4b5563; stroke: #4b5563"/>
      </g>
     </g>
     <g id="text_11">
      <text style="font-size: 8.8px; font-family: 'Arial', 'DejaVu Sans', 'Liberation Sans', 'Bitstream Vera Sans', sans-serif; text-anchor: end; fill: #1a1a1a" x="76.984" y="85.690427" transform="rotate(-0 76.984 85.690427)">ERP Distracted</text>
     </g>
    </g>
    <g id="ytick_4">
     <g id="line2d_11">
      <g>
       <use xlink:href="#m596773a7f3" x="85.484" y="107.074323" style="fill: #4b5563; stroke: #4b5563"/>
      </g>
     </g>
     <g id="text_12">
      <text style="font-size: 8.8px; font-family: 'Arial', 'DejaVu Sans', 'Liberation Sans', 'Bitstream Vera Sans', sans-serif; text-anchor: end; fill: #1a1a1a" x="76.984" y="110.22376" transform="rotate(-0 76.984 110.22376)">ERP Inhibit</text>
     </g>
    </g>
    <g id="ytick_5">
     <g id="line2d_12">
      <g>
       <use xlink:href="#m596773a7f3" x="85.484" y="131.607656" style="fill: #4b5563; stroke: #4b5563"/>
      </g>
     </g>
     <g id="text_13">
      <text style="font-size: 8.8px; font-family: 'Arial', 'DejaVu Sans', 'Liberation Sans', 'Bitstream Vera Sans', sans-serif; text-anchor: end; fill: #1a1a1a" x="76.984" y="134.757094" transform="rotate(-0 76.984 134.757094)">Demographics</text>
     </g>
    </g>
    <g id="ytick_6">
     <g id="line2d_13">
      <g>
       <use xlink:href="#m596773a7f3" x="85.484" y="156.14099" style="fill: #4b5563; stroke: #4b5563"/>
      </g>
     </g>
     <g id="text_14">
      <text style="font-size: 8.8px; font-family: 'Arial', 'DejaVu Sans', 'Liberation Sans', 'Bitstream Vera Sans', sans-serif; text-anchor: end; fill: #1a1a1a" x="76.984" y="159.344052" transform="rotate(-0 76.984 159.344052)">Composite</text>
     </g>
    </g>
    <g id="ytick_7">
     <g id="line2d_14">
      <g>
       <use xlink:href="#m596773a7f3" x="85.484" y="180.674323" style="fill: #4b5563; stroke: #4b5563"/>
      </g>
     </g>
     <g id="text_15">
      <text style="font-size: 8.8px; font-family: 'Arial', 'DejaVu Sans', 'Liberation Sans', 'Bitstream Vera Sans', sans-serif; text-anchor: end; fill: #1a1a1a" x="76.984" y="183.82376" transform="rotate(-0 76.984 183.82376)">Behavioral</text>
     </g>
    </g>
    <g id="ytick_8">
     <g id="line2d_15">
      <g>
       <use xlink:href="#m596773a7f3" x="85.484" y="205.207656" style="fill: #4b5563; stroke: #4b5563"/>
      </g>
     </g>
     <g id="text_16">
      <text style="font-size: 8.8px; font-family: 'Arial', 'DejaVu Sans', 'Liberation Sans', 'Bitstream Vera Sans', sans-serif; text-anchor: end; fill: #1a1a1a" x="76.984" y="208.357094" transform="rotate(-0 76.984 208.357094)">Theta</text>
     </g>
    </g>
    <g id="ytick_9">
     <g id="line2d_16">
      <g>
       <use xlink:href="#m596773a7f3" x="85.484" y="229.74099" style="fill: #4b5563; stroke: #4b5563"/>
      </g>
     </g>
     <g id="text_17">
      <text style="font-size: 8.8px; font-family: 'Arial', 'DejaVu Sans', 'Liberation Sans', 'Bitstream Vera Sans', sans-serif; text-anchor: end; fill: #1a1a1a" x="76.984" y="232.890427" transform="rotate(-0 76.984 232.890427)">Beta</text>
     </g>
    </g>
    <g id="ytick_10">
     <g id="line2d_17">
      <g>
       <use xlink:href="#m596773a7f3" x="85.484" y="254.274323" style="fill: #4b5563; stroke: #4b5563"/>
      </g>
     </g>
     <g id="text_18">
      <text style="font-size: 8.8px; font-family: 'Arial', 'DejaVu Sans', 'Liberation Sans', 'Bitstream Vera Sans', sans-serif; text-anchor: end; fill: #1a1a1a" x="76.984" y="257.42376" transform="rotate(-0 76.984 257.42376)">ERP Undistracted</text>
     </g>
    </g>
    <g id="ytick_11">
     <g id="line2d_18">
      <g>
       <use xlink:href="#m596773a7f3" x="85.484" y="278.807656" style="fill: #4b5563; stroke: #4b5563"/>
      </g>
     </g>
     <g id="text_19">
      <text style="font-size: 8.8px; font-family: 'Arial', 'DejaVu Sans', 'Liberation Sans', 'Bitstream Vera Sans', sans-serif; text-anchor: end; fill: #1a1a1a" x="76.984" y="282.010719" transform="rotate(-0 76.984 282.010719)">Spectral</text>
     </g>
    </g>
    <g id="ytick_12">
     <g id="line2d_19">
      <g>
       <use xlink:href="#m596773a7f3" x="85.484" y="303.34099" style="fill: #4b5563; stroke: #4b5563"/>
      </g>
     </g>
     <g id="text_20">
      <text style="font-size: 8.8px; font-family: 'Arial', 'DejaVu Sans', 'Liberation Sans', 'Bitstream Vera Sans', sans-serif; text-anchor: end; fill: #1a1a1a" x="76.984" y="306.490427" transform="rotate(-0 76.984 306.490427)">Alpha</text>
     </g>
    </g>
   </g>
   <g id="FillBetweenPolyCollection_1">
    <defs>
     <path id="m03d508bda7" d="M 232.784537 -309.693545 
L 232.784537 -328.837622 
L 233.837731 -328.902099 
L 234.890926 -328.956524 
L 235.944121 -329.000883 
L 236.997315 -329.035206 
L 238.05051 -329.059568 
L 239.103704 -329.074085 
L 240.156899 -329.078917 
L 241.210093 -329.074261 
L 242.263288 -329.060359 
L 243.316482 -329.037484 
L 244.369677 -329.00595 
L 245.422871 -328.966102 
L 246.476066 -328.918317 
L 247.52926 -328.862998 
L 248.582455 -328.800576 
L 249.635649 -328.731504 
L 250.688844 -328.656256 
L 251.742038 -328.57532 
L 252.795233 -328.4892 
L 253.848427 -328.398411 
L 254.901622 -328.303471 
L 255.954816 -328.204908 
L 257.008011 -328.103245 
L 258.061205 -327.999007 
L 259.1144 -327.892713 
L 260.167594 -327.784874 
L 261.220789 -327.675987 
L 262.273983 -327.566541 
L 263.327178 -327.457005 
L 264.380373 -327.347831 
L 265.433567 -327.239452 
L 266.486762 -327.132276 
L 267.539956 -327.026689 
L 268.593151 -326.92305 
L 269.646345 -326.821693 
L 270.69954 -326.722923 
L 271.752734 -326.627015 
L 272.805929 -326.534215 
L 273.859123 -326.444739 
L 274.912318 -326.358773 
L 275.965512 -326.276471 
L 277.018707 -326.197959 
L 278.071901 -326.12333 
L 279.125096 -326.052648 
L 280.17829 -325.985949 
L 281.231485 -325.92324 
L 282.284679 -325.8645 
L 283.337874 -325.809682 
L 284.391068 -325.758713 
L 285.444263 -325.711498 
L 286.497457 -325.667917 
L 287.550652 -325.627829 
L 288.603846 -325.591076 
L 289.657041 -325.557478 
L 290.710235 -325.526841 
L 291.76343 -325.498956 
L 292.816625 -325.4736 
L 293.869819 -325.450538 
L 294.923014 -325.429528 
L 295.976208 -325.410315 
L 297.029403 -325.392643 
L 298.082597 -325.376247 
L 299.135792 -325.360862 
L 300.188986 -325.346218 
L 301.242181 -325.332049 
L 302.295375 -325.318087 
L 303.34857 -325.304068 
L 304.401764 -325.289734 
L 305.454959 -325.274829 
L 306.508153 -325.259108 
L 307.561348 -325.24233 
L 308.614542 -325.224265 
L 309.667737 -325.204693 
L 310.720931 -325.183405 
L 311.774126 -325.160204 
L 312.82732 -325.134904 
L 313.880515 -325.107335 
L 314.933709 -325.077338 
L 315.986904 -325.044771 
L 317.040098 -325.009504 
L 318.093293 -324.971425 
L 319.146487 -324.930437 
L 320.199682 -324.886456 
L 321.252877 -324.839417 
L 322.306071 -324.78927 
L 323.359266 -324.735979 
L 324.41246 -324.679526 
L 325.465655 -324.619908 
L 326.518849 -324.557137 
L 327.572044 -324.491238 
L 328.625238 -324.422255 
L 329.678433 -324.350242 
L 330.731627 -324.275269 
L 331.784822 -324.197418 
L 332.838016 -324.116784 
L 333.891211 -324.033474 
L 334.944405 -323.947606 
L 335.9976 -323.859309 
L 337.050794 -323.768719 
L 337.050794 -314.762447 
L 337.050794 -314.762447 
L 335.9976 -314.671858 
L 334.944405 -314.58356 
L 333.891211 -314.497693 
L 332.838016 -314.414383 
L 331.784822 -314.333749 
L 330.731627 -314.255898 
L 329.678433 -314.180925 
L 328.625238 -314.108912 
L 327.572044 -314.039928 
L 326.518849 -313.97403 
L 325.465655 -313.911258 
L 324.41246 -313.85164 
L 323.359266 -313.795188 
L 322.306071 -313.741897 
L 321.252877 -313.691749 
L 320.199682 -313.644711 
L 319.146487 -313.60073 
L 318.093293 -313.559741 
L 317.040098 -313.521662 
L 315.986904 -313.486396 
L 314.933709 -313.453828 
L 313.880515 -313.423832 
L 312.82732 -313.396262 
L 311.774126 -313.370963 
L 310.720931 -313.347761 
L 309.667737 -313.326474 
L 308.614542 -313.306902 
L 307.561348 -313.288837 
L 306.508153 -313.272059 
L 305.454959 -313.256337 
L 304.401764 -313.241433 
L 303.34857 -313.227098 
L 302.295375 -313.21308 
L 301.242181 -313.199118 
L 300.188986 -313.184948 
L 299.135792 -313.170305 
L 298.082597 -313.15492 
L 297.029403 -313.138524 
L 295.976208 -313.120851 
L 294.923014 -313.101639 
L 293.869819 -313.080628 
L 292.816625 -313.057567 
L 291.76343 -313.03221 
L 290.710235 -313.004325 
L 289.657041 -312.973689 
L 288.603846 -312.940091 
L 287.550652 -312.903337 
L 286.497457 -312.86325 
L 285.444263 -312.819669 
L 284.391068 -312.772454 
L 283.337874 -312.721485 
L 282.284679 -312.666667 
L 281.231485 -312.607927 
L 280.17829 -312.545218 
L 279.125096 -312.478519 
L 278.071901 -312.407837 
L 277.018707 -312.333208 
L 275.965512 -312.254695 
L 274.912318 -312.172394 
L 273.859123 -312.086428 
L 272.805929 -311.996952 
L 271.752734 -311.904152 
L 270.69954 -311.808244 
L 269.646345 -311.709473 
L 268.593151 -311.608116 
L 267.539956 -311.504478 
L 266.486762 -311.398891 
L 265.433567 -311.291715 
L 264.380373 -311.183335 
L 263.327178 -311.074162 
L 262.273983 -310.964626 
L 261.220789 -310.855179 
L 260.167594 -310.746293 
L 259.1144 -310.638453 
L 258.061205 -310.532159 
L 257.008011 -310.427922 
L 255.954816 -310.326259 
L 254.901622 -310.227695 
L 253.848427 -310.132756 
L 252.795233 -310.041966 
L 251.742038 -309.955847 
L 250.688844 -309.874911 
L 249.635649 -309.799663 
L 248.582455 -309.730591 
L 247.52926 -309.668169 
L 246.476066 -309.61285 
L 245.422871 -309.565064 
L 244.369677 -309.525216 
L 243.316482 -309.493682 
L 242.263288 -309.470808 
L 241.210093 -309.456905 
L 240.156899 -309.45225 
L 239.103704 -309.457081 
L 238.05051 -309.471598 
L 236.997315 -309.49596 
L 235.944121 -309.530284 
L 234.890926 -309.574643 
L 233.837731 -309.629068 
L 232.784537 -309.693545 
z
" style="stroke: #101010"/>
    </defs>
    <g clip-path="url(#p618a89a423)">
     <use xlink:href="#m03d508bda7" x="0" y="352.739906" style="fill: #6c5f77; stroke: #101010"/>
    </g>
   </g>
   <g id="FillBetweenPolyCollection_2">
    <defs>
     <path id="m9c9b08f2a4" d="M 164.514385 -291.765911 
L 164.514385 -297.698589 
L 166.037605 -297.804319 
L 167.560825 -297.910468 
L 169.084045 -298.017244 
L 170.607265 -298.124905 
L 172.130485 -298.233757 
L 173.653705 -298.344148 
L 175.176925 -298.456463 
L 176.700145 -298.571116 
L 178.223365 -298.688542 
L 179.746586 -298.809186 
L 181.269806 -298.933496 
L 182.793026 -299.061908 
L 184.316246 -299.194836 
L 185.839466 -299.33266 
L 187.362686 -299.475713 
L 188.885906 -299.62427 
L 190.409126 -299.778534 
L 191.932346 -299.93863 
L 193.455566 -300.104591 
L 194.978786 -300.276352 
L 196.502006 -300.453741 
L 198.025226 -300.636478 
L 199.548446 -300.824171 
L 201.071666 -301.016311 
L 202.594886 -301.212281 
L 204.118106 -301.411354 
L 205.641326 -301.612702 
L 207.164546 -301.815404 
L 208.687766 -302.018459 
L 210.210986 -302.220792 
L 211.734206 -302.421279 
L 213.257426 -302.618753 
L 214.780646 -302.812025 
L 216.303866 -302.999904 
L 217.827086 -303.181214 
L 219.350306 -303.35481 
L 220.873526 -303.519599 
L 222.396746 -303.674556 
L 223.919966 -303.818741 
L 225.443187 -303.951316 
L 226.966407 -304.071551 
L 228.489627 -304.178843 
L 230.012847 -304.272721 
L 231.536067 -304.352852 
L 233.059287 -304.419045 
L 234.582507 -304.471252 
L 236.105727 -304.509568 
L 237.628947 -304.534224 
L 239.152167 -304.545583 
L 240.675387 -304.544129 
L 242.198607 -304.530457 
L 243.721827 -304.50526 
L 245.245047 -304.469315 
L 246.768267 -304.423467 
L 248.291487 -304.368616 
L 249.814707 -304.305694 
L 251.337927 -304.235653 
L 252.861147 -304.159448 
L 254.384367 -304.078021 
L 255.907587 -303.992283 
L 257.430807 -303.903102 
L 258.954027 -303.811291 
L 260.477247 -303.717596 
L 262.000467 -303.622686 
L 263.523687 -303.527146 
L 265.046907 -303.431468 
L 266.570127 -303.336054 
L 268.093347 -303.241207 
L 269.616567 -303.147133 
L 271.139788 -303.053944 
L 272.663008 -302.961661 
L 274.186228 -302.870216 
L 275.709448 -302.779461 
L 277.232668 -302.689176 
L 278.755888 -302.599074 
L 280.279108 -302.508814 
L 281.802328 -302.418007 
L 283.325548 -302.326231 
L 284.848768 -302.233037 
L 286.371988 -302.137964 
L 287.895208 -302.040546 
L 289.418428 -301.940325 
L 290.941648 -301.836859 
L 292.464868 -301.729731 
L 293.988088 -301.618561 
L 295.511308 -301.50301 
L 297.034528 -301.382788 
L 298.557748 -301.257662 
L 300.080968 -301.127455 
L 301.604188 -300.99206 
L 303.127408 -300.85143 
L 304.650628 -300.70559 
L 306.173848 -300.554634 
L 307.697068 -300.398719 
L 309.220288 -300.238074 
L 310.743508 -300.072987 
L 312.266728 -299.903808 
L 313.789948 -299.730941 
L 315.313168 -299.55484 
L 315.313168 -289.90966 
L 315.313168 -289.90966 
L 313.789948 -289.733559 
L 312.266728 -289.560692 
L 310.743508 -289.391513 
L 309.220288 -289.226426 
L 307.697068 -289.065781 
L 306.173848 -288.909866 
L 304.650628 -288.75891 
L 303.127408 -288.61307 
L 301.604188 -288.47244 
L 300.080968 -288.337045 
L 298.557748 -288.206838 
L 297.034528 -288.081712 
L 295.511308 -287.96149 
L 293.988088 -287.845939 
L 292.464868 -287.734769 
L 290.941648 -287.627641 
L 289.418428 -287.524175 
L 287.895208 -287.423954 
L 286.371988 -287.326536 
L 284.848768 -287.231463 
L 283.325548 -287.138269 
L 281.802328 -287.046493 
L 280.279108 -286.955686 
L 278.755888 -286.865426 
L 277.232668 -286.775324 
L 275.709448 -286.685039 
L 274.186228 -286.594284 
L 272.663008 -286.502839 
L 271.139788 -286.410556 
L 269.616567 -286.317367 
L 268.093347 -286.223293 
L 266.570127 -286.128446 
L 265.046907 -286.033032 
L 263.523687 -285.937354 
L 262.000467 -285.841814 
L 260.477247 -285.746904 
L 258.954027 -285.653209 
L 257.430807 -285.561398 
L 255.907587 -285.472217 
L 254.384367 -285.386479 
L 252.861147 -285.305052 
L 251.337927 -285.228847 
L 249.814707 -285.158806 
L 248.291487 -285.095884 
L 246.768267 -285.041033 
L 245.245047 -284.995185 
L 243.721827 -284.95924 
L 242.198607 -284.934043 
L 240.675387 -284.920371 
L 239.152167 -284.918917 
L 237.628947 -284.930276 
L 236.105727 -284.954932 
L 234.582507 -284.993248 
L 233.059287 -285.045455 
L 231.536067 -285.111648 
L 230.012847 -285.191779 
L 228.489627 -285.285657 
L 226.966407 -285.392949 
L 225.443187 -285.513184 
L 223.919966 -285.645759 
L 222.396746 -285.789944 
L 220.873526 -285.944901 
L 219.350306 -286.10969 
L 217.827086 -286.283286 
L 216.303866 -286.464596 
L 214.780646 -286.652475 
L 213.257426 -286.845747 
L 211.734206 -287.043221 
L 210.210986 -287.243708 
L 208.687766 -287.446041 
L 207.164546 -287.649096 
L 205.641326 -287.851798 
L 204.118106 -288.053146 
L 202.594886 -288.252219 
L 201.071666 -288.448189 
L 199.548446 -288.640329 
L 198.025226 -288.828022 
L 196.502006 -289.010759 
L 194.978786 -289.188148 
L 193.455566 -289.359909 
L 191.932346 -289.52587 
L 190.409126 -289.685966 
L 188.885906 -289.84023 
L 187.362686 -289.988787 
L 185.839466 -290.13184 
L 184.316246 -290.269664 
L 182.793026 -290.402592 
L 181.269806 -290.531004 
L 179.746586 -290.655314 
L 178.223365 -290.775958 
L 176.700145 -290.893384 
L 175.176925 -291.008037 
L 173.653705 -291.120352 
L 172.130485 -291.230743 
L 170.607265 -291.339595 
L 169.084045 -291.447256 
L 167.560825 -291.554032 
L 166.037605 -291.660181 
L 164.514385 -291.765911 
z
" style="stroke: #101010"/>
    </defs>
    <g clip-path="url(#p618a89a423)">
     <use xlink:href="#m9c9b08f2a4" x="0" y="352.739906" style="fill: #3b5d80; stroke: #101010"/>
    </g>
   </g>
   <g id="FillBetweenPolyCollection_3">
    <defs>
     <path id="m13f54b2e2e" d="M 108.23409 -269.612933 
L 108.23409 -270.784901 
L 110.317383 -270.785545 
L 112.400676 -270.780995 
L 114.483969 -270.771988 
L 116.567262 -270.759553 
L 118.650555 -270.744982 
L 120.733848 -270.7298 
L 122.817141 -270.715719 
L 124.900434 -270.704587 
L 126.983726 -270.698335 
L 129.067019 -270.69892 
L 131.150312 -270.708269 
L 133.233605 -270.728229 
L 135.316898 -270.760517 
L 137.400191 -270.80668 
L 139.483484 -270.868059 
L 141.566777 -270.945763 
L 143.65007 -271.040657 
L 145.733363 -271.153349 
L 147.816656 -271.284198 
L 149.899949 -271.433324 
L 151.983241 -271.600632 
L 154.066534 -271.785839 
L 156.149827 -271.988508 
L 158.23312 -272.20808 
L 160.316413 -272.443908 
L 162.399706 -272.695279 
L 164.482999 -272.961433 
L 166.566292 -273.241564 
L 168.649585 -273.534811 
L 170.732878 -273.840232 
L 172.816171 -274.156774 
L 174.899464 -274.483223 
L 176.982756 -274.818169 
L 179.066049 -275.159956 
L 181.149342 -275.506657 
L 183.232635 -275.856058 
L 185.315928 -276.205665 
L 187.399221 -276.552736 
L 189.482514 -276.894334 
L 191.565807 -277.227414 
L 193.6491 -277.548917 
L 195.732393 -277.855884 
L 197.815686 -278.145579 
L 199.898979 -278.415603 
L 201.982271 -278.664002 
L 204.065564 -278.889355 
L 206.148857 -279.090832 
L 208.23215 -279.268228 
L 210.315443 -279.421953 
L 212.398736 -279.552989 
L 214.482029 -279.662813 
L 216.565322 -279.753283 
L 218.648615 -279.826503 
L 220.731908 -279.884664 
L 222.815201 -279.929881 
L 224.898494 -279.964027 
L 226.981787 -279.988589 
L 229.065079 -280.004539 
L 231.148372 -280.01225 
L 233.231665 -280.01145 
L 235.314958 -280.001229 
L 237.398251 -279.980088 
L 239.481544 -279.946048 
L 241.564837 -279.896783 
L 243.64813 -279.829795 
L 245.731423 -279.742597 
L 247.814716 -279.632905 
L 249.898009 -279.498807 
L 251.981302 -279.33892 
L 254.064594 -279.152497 
L 256.147887 -278.939499 
L 258.23118 -278.700623 
L 260.314473 -278.437284 
L 262.397766 -278.151556 
L 264.481059 -277.846085 
L 266.564352 -277.523981 
L 268.647645 -277.188689 
L 270.730938 -276.84387 
L 272.814231 -276.493266 
L 274.897524 -276.140591 
L 276.980817 -275.789422 
L 279.064109 -275.443108 
L 281.147402 -275.104693 
L 283.230695 -274.776851 
L 285.313988 -274.46184 
L 287.397281 -274.161463 
L 289.480574 -273.877048 
L 291.563867 -273.609446 
L 293.64716 -273.359034 
L 295.730453 -273.125745 
L 297.813746 -272.909111 
L 299.897039 -272.708316 
L 301.980332 -272.52227 
L 304.063624 -272.349685 
L 306.146917 -272.18916 
L 308.23021 -272.039265 
L 310.313503 -271.89862 
L 312.396796 -271.765964 
L 314.480089 -271.640211 
L 314.480089 -268.757623 
L 314.480089 -268.757623 
L 312.396796 -268.631869 
L 310.313503 -268.499213 
L 308.23021 -268.358568 
L 306.146917 -268.208673 
L 304.063624 -268.048148 
L 301.980332 -267.875563 
L 299.897039 -267.689517 
L 297.813746 -267.488723 
L 295.730453 -267.272088 
L 293.64716 -267.0388 
L 291.563867 -266.788387 
L 289.480574 -266.520785 
L 287.397281 -266.236371 
L 285.313988 -265.935993 
L 283.230695 -265.620982 
L 281.147402 -265.29314 
L 279.064109 -264.954725 
L 276.980817 -264.608411 
L 274.897524 -264.257242 
L 272.814231 -263.904567 
L 270.730938 -263.553963 
L 268.647645 -263.209144 
L 266.564352 -262.873853 
L 264.481059 -262.551748 
L 262.397766 -262.246277 
L 260.314473 -261.960549 
L 258.23118 -261.69721 
L 256.147887 -261.458335 
L 254.064594 -261.245337 
L 251.981302 -261.058913 
L 249.898009 -260.899026 
L 247.814716 -260.764929 
L 245.731423 -260.655236 
L 243.64813 -260.568039 
L 241.564837 -260.50105 
L 239.481544 -260.451785 
L 237.398251 -260.417745 
L 235.314958 -260.396605 
L 233.231665 -260.386383 
L 231.148372 -260.385583 
L 229.065079 -260.393294 
L 226.981787 -260.409244 
L 224.898494 -260.433806 
L 222.815201 -260.467953 
L 220.731908 -260.51317 
L 218.648615 -260.571331 
L 216.565322 -260.644551 
L 214.482029 -260.735021 
L 212.398736 -260.844844 
L 210.315443 -260.97588 
L 208.23215 -261.129605 
L 206.148857 -261.307001 
L 204.065564 -261.508479 
L 201.982271 -261.733831 
L 199.898979 -261.98223 
L 197.815686 -262.252254 
L 195.732393 -262.541949 
L 193.6491 -262.848916 
L 191.565807 -263.170419 
L 189.482514 -263.503499 
L 187.399221 -263.845098 
L 185.315928 -264.192168 
L 183.232635 -264.541775 
L 181.149342 -264.891176 
L 179.066049 -265.237877 
L 176.982756 -265.579664 
L 174.899464 -265.91461 
L 172.816171 -266.24106 
L 170.732878 -266.557601 
L 168.649585 -266.863022 
L 166.566292 -267.156269 
L 164.482999 -267.4364 
L 162.399706 -267.702555 
L 160.316413 -267.953926 
L 158.23312 -268.189753 
L 156.149827 -268.409325 
L 154.066534 -268.611994 
L 151.983241 -268.797201 
L 149.899949 -268.964509 
L 147.816656 -269.113635 
L 145.733363 -269.244484 
L 143.65007 -269.357176 
L 141.566777 -269.45207 
L 139.483484 -269.529775 
L 137.400191 -269.591153 
L 135.316898 -269.637316 
L 133.233605 -269.669604 
L 131.150312 -269.689564 
L 129.067019 -269.698914 
L 126.983726 -269.699498 
L 124.900434 -269.693246 
L 122.817141 -269.682114 
L 120.733848 -269.668033 
L 118.650555 -269.652852 
L 116.567262 -269.638281 
L 114.483969 -269.625845 
L 112.400676 -269.616838 
L 110.317383 -269.612288 
L 108.23409 -269.612933 
z
" style="stroke: #101010"/>
    </defs>
    <g clip-path="url(#p618a89a423)">
     <use xlink:href="#m13f54b2e2e" x="0" y="352.739906" style="fill: #b79d5a; stroke: #101010"/>
    </g>
   </g>
   <g id="FillBetweenPolyCollection_4">
    <defs>
     <path id="mfe2420b90e" d="M 140.955157 -244.51074 
L 140.955157 -246.820427 
L 142.931401 -246.928928 
L 144.907645 -247.043901 
L 146.883889 -247.165691 
L 148.860133 -247.29463 
L 150.836377 -247.430997 
L 152.812621 -247.574986 
L 154.788865 -247.726661 
L 156.76511 -247.885924 
L 158.741354 -248.052476 
L 160.717598 -248.225794 
L 162.693842 -248.405117 
L 164.670086 -248.589439 
L 166.64633 -248.777524 
L 168.622574 -248.967937 
L 170.598819 -249.159085 
L 172.575063 -249.349273 
L 174.551307 -249.536781 
L 176.527551 -249.719935 
L 178.503795 -249.897196 
L 180.480039 -250.067237 
L 182.456283 -250.229022 
L 184.432528 -250.381868 
L 186.408772 -250.525496 
L 188.385016 -250.660057 
L 190.36126 -250.786138 
L 192.337504 -250.90475 
L 194.313748 -251.017279 
L 196.289992 -251.125429 
L 198.266236 -251.23114 
L 200.242481 -251.336492 
L 202.218725 -251.443605 
L 204.194969 -251.554533 
L 206.171213 -251.671162 
L 208.147457 -251.795123 
L 210.123701 -251.927711 
L 212.099945 -252.069831 
L 214.07619 -252.22196 
L 216.052434 -252.384131 
L 218.028678 -252.555939 
L 220.004922 -252.73657 
L 221.981166 -252.92484 
L 223.95741 -253.119251 
L 225.933654 -253.318055 
L 227.909898 -253.519316 
L 229.886143 -253.720979 
L 231.862387 -253.920927 
L 233.838631 -254.117032 
L 235.814875 -254.307197 
L 237.791119 -254.489383 
L 239.767363 -254.66163 
L 241.743607 -254.82206 
L 243.719852 -254.968878 
L 245.696096 -255.100365 
L 247.67234 -255.21487 
L 249.648584 -255.310798 
L 251.624828 -255.386613 
L 253.601072 -255.440833 
L 255.577316 -255.472043 
L 257.55356 -255.478917 
L 259.529805 -255.460244 
L 261.506049 -255.414966 
L 263.482293 -255.342222 
L 265.458537 -255.241389 
L 267.434781 -255.112137 
L 269.411025 -254.954465 
L 271.387269 -254.768743 
L 273.363514 -254.555743 
L 275.339758 -254.316651 
L 277.316002 -254.053077 
L 279.292246 -253.767044 
L 281.26849 -253.460962 
L 283.244734 -253.137594 
L 285.220978 -252.800001 
L 287.197223 -252.451485 
L 289.173467 -252.09551 
L 291.149711 -251.735628 
L 293.125955 -251.375395 
L 295.102199 -251.018286 
L 297.078443 -250.667614 
L 299.054687 -250.326451 
L 301.030931 -249.997559 
L 303.007176 -249.683328 
L 304.98342 -249.385725 
L 306.959664 -249.106264 
L 308.935908 -248.845982 
L 310.912152 -248.605433 
L 312.888396 -248.384701 
L 314.86464 -248.183425 
L 316.840885 -248.000836 
L 318.817129 -247.835816 
L 320.793373 -247.686953 
L 322.769617 -247.552619 
L 324.745861 -247.431041 
L 326.722105 -247.32038 
L 328.698349 -247.218809 
L 330.674593 -247.124581 
L 332.650838 -247.036091 
L 334.627082 -246.951932 
L 336.603326 -246.870927 
L 336.603326 -244.46024 
L 336.603326 -244.46024 
L 334.627082 -244.379235 
L 332.650838 -244.295075 
L 330.674593 -244.206586 
L 328.698349 -244.112358 
L 326.722105 -244.010787 
L 324.745861 -243.900126 
L 322.769617 -243.778548 
L 320.793373 -243.644213 
L 318.817129 -243.495351 
L 316.840885 -243.33033 
L 314.86464 -243.147742 
L 312.888396 -242.946465 
L 310.912152 -242.725733 
L 308.935908 -242.485184 
L 306.959664 -242.224902 
L 304.98342 -241.945442 
L 303.007176 -241.647839 
L 301.030931 -241.333607 
L 299.054687 -241.004715 
L 297.078443 -240.663553 
L 295.102199 -240.312881 
L 293.125955 -239.955772 
L 291.149711 -239.595539 
L 289.173467 -239.235657 
L 287.197223 -238.879681 
L 285.220978 -238.531165 
L 283.244734 -238.193573 
L 281.26849 -237.870205 
L 279.292246 -237.564123 
L 277.316002 -237.278089 
L 275.339758 -237.014515 
L 273.363514 -236.775423 
L 271.387269 -236.562423 
L 269.411025 -236.376702 
L 267.434781 -236.21903 
L 265.458537 -236.089777 
L 263.482293 -235.988945 
L 261.506049 -235.9162 
L 259.529805 -235.870923 
L 257.55356 -235.85225 
L 255.577316 -235.859124 
L 253.601072 -235.890334 
L 251.624828 -235.944553 
L 249.648584 -236.020368 
L 247.67234 -236.116297 
L 245.696096 -236.230802 
L 243.719852 -236.362289 
L 241.743607 -236.509107 
L 239.767363 -236.669537 
L 237.791119 -236.841784 
L 235.814875 -237.02397 
L 233.838631 -237.214135 
L 231.862387 -237.41024 
L 229.886143 -237.610187 
L 227.909898 -237.81185 
L 225.933654 -238.013112 
L 223.95741 -238.211915 
L 221.981166 -238.406327 
L 220.004922 -238.594597 
L 218.028678 -238.775228 
L 216.052434 -238.947036 
L 214.07619 -239.109206 
L 212.099945 -239.261335 
L 210.123701 -239.403456 
L 208.147457 -239.536044 
L 206.171213 -239.660005 
L 204.194969 -239.776634 
L 202.218725 -239.887562 
L 200.242481 -239.994675 
L 198.266236 -240.100027 
L 196.289992 -240.205738 
L 194.313748 -240.313888 
L 192.337504 -240.426417 
L 190.36126 -240.545028 
L 188.385016 -240.67111 
L 186.408772 -240.805671 
L 184.432528 -240.949298 
L 182.456283 -241.102145 
L 180.480039 -241.26393 
L 178.503795 -241.433971 
L 176.527551 -241.611232 
L 174.551307 -241.794386 
L 172.575063 -241.981894 
L 170.598819 -242.172082 
L 168.622574 -242.363229 
L 166.64633 -242.553642 
L 164.670086 -242.741728 
L 162.693842 -242.92605 
L 160.717598 -243.105372 
L 158.741354 -243.278691 
L 156.76511 -243.445243 
L 154.788865 -243.604506 
L 152.812621 -243.756181 
L 150.836377 -243.900169 
L 148.860133 -244.036537 
L 146.883889 -244.165475 
L 144.907645 -244.287266 
L 142.931401 -244.402239 
L 140.955157 -244.51074 
z
" style="stroke: #101010"/>
    </defs>
    <g clip-path="url(#p618a89a423)">
     <use xlink:href="#mfe2420b90e" x="0" y="352.739906" style="fill: #a3554d; stroke: #101010"/>
    </g>
   </g>
   <g id="FillBetweenPolyCollection_5">
    <defs>
     <path id="mbcf9e560d1" d="M 151.974743 -216.895276 
L 151.974743 -225.369224 
L 153.888001 -225.556681 
L 155.801258 -225.746952 
L 157.714516 -225.939765 
L 159.627774 -226.134822 
L 161.541031 -226.331795 
L 163.454289 -226.530323 
L 165.367546 -226.730016 
L 167.280804 -226.930452 
L 169.194061 -227.13118 
L 171.107319 -227.331719 
L 173.020577 -227.531562 
L 174.933834 -227.730177 
L 176.847092 -227.927016 
L 178.760349 -228.121511 
L 180.673607 -228.313088 
L 182.586864 -228.501166 
L 184.500122 -228.685167 
L 186.41338 -228.864521 
L 188.326637 -229.038674 
L 190.239895 -229.207094 
L 192.153152 -229.369276 
L 194.06641 -229.524751 
L 195.979667 -229.673092 
L 197.892925 -229.813918 
L 199.806182 -229.946897 
L 201.71944 -230.071752 
L 203.632698 -230.188264 
L 205.545955 -230.29627 
L 207.459213 -230.395667 
L 209.37247 -230.486409 
L 211.285728 -230.568504 
L 213.198985 -230.642012 
L 215.112243 -230.707041 
L 217.025501 -230.763739 
L 218.938758 -230.812292 
L 220.852016 -230.852913 
L 222.765273 -230.885837 
L 224.678531 -230.911312 
L 226.591788 -230.929593 
L 228.505046 -230.940935 
L 230.418304 -230.945583 
L 232.331561 -230.94377 
L 234.244819 -230.935706 
L 236.158076 -230.921578 
L 238.071334 -230.901546 
L 239.984591 -230.875737 
L 241.897849 -230.844248 
L 243.811106 -230.807144 
L 245.724364 -230.764459 
L 247.637622 -230.716199 
L 249.550879 -230.662348 
L 251.464137 -230.602866 
L 253.377394 -230.537704 
L 255.290652 -230.4668 
L 257.203909 -230.390094 
L 259.117167 -230.307527 
L 261.030425 -230.219056 
L 262.943682 -230.124652 
L 264.85694 -230.024315 
L 266.770197 -229.918071 
L 268.683455 -229.805983 
L 270.596712 -229.688153 
L 272.50997 -229.564725 
L 274.423227 -229.435887 
L 276.336485 -229.30187 
L 278.249743 -229.162952 
L 280.163 -229.019452 
L 282.076258 -228.871731 
L 283.989515 -228.720183 
L 285.902773 -228.565238 
L 287.81603 -228.407349 
L 289.729288 -228.246991 
L 291.642546 -228.084653 
L 293.555803 -227.920829 
L 295.469061 -227.756013 
L 297.382318 -227.590694 
L 299.295576 -227.425345 
L 301.208833 -227.260417 
L 303.122091 -227.096337 
L 305.035349 -226.933499 
L 306.948606 -226.772259 
L 308.861864 -226.612934 
L 310.775121 -226.4558 
L 312.688379 -226.301084 
L 314.601636 -226.14897 
L 316.514894 -225.999596 
L 318.428151 -225.853056 
L 320.341409 -225.7094 
L 322.254667 -225.568639 
L 324.167924 -225.430748 
L 326.081182 -225.295669 
L 327.994439 -225.163318 
L 329.907697 -225.033587 
L 331.820954 -224.90635 
L 333.734212 -224.781471 
L 335.64747 -224.658806 
L 337.560727 -224.538208 
L 339.473985 -224.419537 
L 341.387242 -224.302656 
L 341.387242 -217.961844 
L 341.387242 -217.961844 
L 339.473985 -217.844963 
L 337.560727 -217.726292 
L 335.64747 -217.605694 
L 333.734212 -217.483029 
L 331.820954 -217.35815 
L 329.907697 -217.230913 
L 327.994439 -217.101182 
L 326.081182 -216.968831 
L 324.167924 -216.833752 
L 322.254667 -216.695861 
L 320.341409 -216.5551 
L 318.428151 -216.411444 
L 316.514894 -216.264904 
L 314.601636 -216.11553 
L 312.688379 -215.963416 
L 310.775121 -215.8087 
L 308.861864 -215.651566 
L 306.948606 -215.492241 
L 305.035349 -215.331001 
L 303.122091 -215.168163 
L 301.208833 -215.004083 
L 299.295576 -214.839155 
L 297.382318 -214.673806 
L 295.469061 -214.508487 
L 293.555803 -214.343671 
L 291.642546 -214.179847 
L 289.729288 -214.017509 
L 287.81603 -213.857151 
L 285.902773 -213.699262 
L 283.989515 -213.544317 
L 282.076258 -213.392769 
L 280.163 -213.245048 
L 278.249743 -213.101548 
L 276.336485 -212.96263 
L 274.423227 -212.828613 
L 272.50997 -212.699775 
L 270.596712 -212.576347 
L 268.683455 -212.458517 
L 266.770197 -212.346429 
L 264.85694 -212.240185 
L 262.943682 -212.139848 
L 261.030425 -212.045444 
L 259.117167 -211.956973 
L 257.203909 -211.874406 
L 255.290652 -211.7977 
L 253.377394 -211.726796 
L 251.464137 -211.661634 
L 249.550879 -211.602152 
L 247.637622 -211.548301 
L 245.724364 -211.500041 
L 243.811106 -211.457356 
L 241.897849 -211.420252 
L 239.984591 -211.388763 
L 238.071334 -211.362954 
L 236.158076 -211.342922 
L 234.244819 -211.328794 
L 232.331561 -211.32073 
L 230.418304 -211.318917 
L 228.505046 -211.323565 
L 226.591788 -211.334907 
L 224.678531 -211.353188 
L 222.765273 -211.378663 
L 220.852016 -211.411587 
L 218.938758 -211.452208 
L 217.025501 -211.500761 
L 215.112243 -211.557459 
L 213.198985 -211.622488 
L 211.285728 -211.695996 
L 209.37247 -211.778091 
L 207.459213 -211.868833 
L 205.545955 -211.96823 
L 203.632698 -212.076236 
L 201.71944 -212.192748 
L 199.806182 -212.317603 
L 197.892925 -212.450582 
L 195.979667 -212.591408 
L 194.06641 -212.739749 
L 192.153152 -212.895224 
L 190.239895 -213.057406 
L 188.326637 -213.225826 
L 186.41338 -213.399979 
L 184.500122 -213.579333 
L 182.586864 -213.763334 
L 180.673607 -213.951412 
L 178.760349 -214.142989 
L 176.847092 -214.337484 
L 174.933834 -214.534323 
L 173.020577 -214.732938 
L 171.107319 -214.932781 
L 169.194061 -215.13332 
L 167.280804 -215.334048 
L 165.367546 -215.534484 
L 163.454289 -215.734177 
L 161.541031 -215.932705 
L 159.627774 -216.129678 
L 157.714516 -216.324735 
L 155.801258 -216.517548 
L 153.888001 -216.707819 
L 151.974743 -216.895276 
z
" style="stroke: #101010"/>
    </defs>
    <g clip-path="url(#p618a89a423)">
     <use xlink:href="#mbcf9e560d1" x="0" y="352.739906" style="fill: #5875a4; stroke: #101010"/>
    </g>
   </g>
   <g id="FillBetweenPolyCollection_6">
    <defs>
     <path id="m577490a4ab" d="M 118.01211 -196.123337 
L 118.01211 -197.074497 
L 120.539526 -197.173158 
L 123.066942 -197.287073 
L 125.594359 -197.416904 
L 128.121775 -197.562714 
L 130.649191 -197.723826 
L 133.176608 -197.898764 
L 135.704024 -198.085276 
L 138.23144 -198.280459 
L 140.758857 -198.481002 
L 143.286273 -198.683503 
L 145.81369 -198.884858 
L 148.341106 -199.082643 
L 150.868522 -199.275444 
L 153.395939 -199.463086 
L 155.923355 -199.646695 
L 158.450771 -199.82859 
L 160.978188 -200.012018 
L 163.505604 -200.200745 
L 166.03302 -200.398611 
L 168.560437 -200.609078 
L 171.087853 -200.834885 
L 173.61527 -201.077829 
L 176.142686 -201.338703 
L 178.670102 -201.617381 
L 181.197519 -201.912969 
L 183.724935 -202.223999 
L 186.252351 -202.548551 
L 188.779768 -202.884307 
L 191.307184 -203.228486 
L 193.8346 -203.577705 
L 196.362017 -203.92782 
L 198.889433 -204.273823 
L 201.41685 -204.609855 
L 203.944266 -204.929408 
L 206.471682 -205.225697 
L 208.999099 -205.492214 
L 211.526515 -205.723358 
L 214.053931 -205.915084 
L 216.581348 -206.06544 
L 219.108764 -206.174927 
L 221.63618 -206.246595 
L 224.163597 -206.285839 
L 226.691013 -206.29992 
L 229.21843 -206.297231 
L 231.745846 -206.2864 
L 234.273262 -206.275332 
L 236.800679 -206.270313 
L 239.328095 -206.275294 
L 241.855511 -206.291468 
L 244.382928 -206.317212 
L 246.910344 -206.348419 
L 249.43776 -206.379171 
L 251.965177 -206.402669 
L 254.492593 -206.41225 
L 257.02001 -206.402326 
L 259.547426 -206.369083 
L 262.074842 -206.310805 
L 264.602259 -206.227782 
L 267.129675 -206.121838 
L 269.657091 -205.995584 
L 272.184508 -205.851573 
L 274.711924 -205.691536 
L 277.23934 -205.515862 
L 279.766757 -205.323443 
L 282.294173 -205.111878 
L 284.82159 -204.878026 
L 287.349006 -204.618751 
L 289.876422 -204.331727 
L 292.403839 -204.016135 
L 294.931255 -203.673125 
L 297.458671 -203.305969 
L 299.986088 -202.919877 
L 302.513504 -202.521543 
L 305.04092 -202.11849 
L 307.568337 -201.71835 
L 310.095753 -201.328172 
L 312.62317 -200.953882 
L 315.150586 -200.599936 
L 317.678002 -200.269203 
L 320.205419 -199.963052 
L 322.732835 -199.6816 
L 325.260251 -199.424052 
L 327.787668 -199.189054 
L 330.315084 -198.975006 
L 332.8425 -198.780297 
L 335.369917 -198.603421 
L 337.897333 -198.443008 
L 340.42475 -198.297773 
L 342.952166 -198.166431 
L 345.479582 -198.047607 
L 348.006999 -197.939773 
L 350.534415 -197.841244 
L 353.061831 -197.750217 
L 355.589248 -197.664869 
L 358.116664 -197.583482 
L 360.64408 -197.504579 
L 363.171497 -197.427047 
L 365.698913 -197.35022 
L 368.22633 -197.273919 
L 368.22633 -195.923914 
L 368.22633 -195.923914 
L 365.698913 -195.847613 
L 363.171497 -195.770786 
L 360.64408 -195.693254 
L 358.116664 -195.614352 
L 355.589248 -195.532965 
L 353.061831 -195.447616 
L 350.534415 -195.356589 
L 348.006999 -195.25806 
L 345.479582 -195.150226 
L 342.952166 -195.031402 
L 340.42475 -194.90006 
L 337.897333 -194.754826 
L 335.369917 -194.594413 
L 332.8425 -194.417536 
L 330.315084 -194.222827 
L 327.787668 -194.00878 
L 325.260251 -193.773781 
L 322.732835 -193.516233 
L 320.205419 -193.234782 
L 317.678002 -192.928631 
L 315.150586 -192.597897 
L 312.62317 -192.243951 
L 310.095753 -191.869661 
L 307.568337 -191.479483 
L 305.04092 -191.079343 
L 302.513504 -190.676291 
L 299.986088 -190.277956 
L 297.458671 -189.891864 
L 294.931255 -189.524708 
L 292.403839 -189.181699 
L 289.876422 -188.866107 
L 287.349006 -188.579082 
L 284.82159 -188.319807 
L 282.294173 -188.085955 
L 279.766757 -187.874391 
L 277.23934 -187.681971 
L 274.711924 -187.506298 
L 272.184508 -187.34626 
L 269.657091 -187.202249 
L 267.129675 -187.075995 
L 264.602259 -186.970051 
L 262.074842 -186.887028 
L 259.547426 -186.82875 
L 257.02001 -186.795507 
L 254.492593 -186.785583 
L 251.965177 -186.795164 
L 249.43776 -186.818662 
L 246.910344 -186.849415 
L 244.382928 -186.880621 
L 241.855511 -186.906366 
L 239.328095 -186.922539 
L 236.800679 -186.92752 
L 234.273262 -186.922501 
L 231.745846 -186.911434 
L 229.21843 -186.900602 
L 226.691013 -186.897913 
L 224.163597 -186.911994 
L 221.63618 -186.951238 
L 219.108764 -187.022906 
L 216.581348 -187.132394 
L 214.053931 -187.28275 
L 211.526515 -187.474475 
L 208.999099 -187.705619 
L 206.471682 -187.972136 
L 203.944266 -188.268426 
L 201.41685 -188.587978 
L 198.889433 -188.924011 
L 196.362017 -189.270013 
L 193.8346 -189.620129 
L 191.307184 -189.969347 
L 188.779768 -190.313526 
L 186.252351 -190.649282 
L 183.724935 -190.973835 
L 181.197519 -191.284864 
L 178.670102 -191.580453 
L 176.142686 -191.85913 
L 173.61527 -192.120005 
L 171.087853 -192.362948 
L 168.560437 -192.588755 
L 166.03302 -192.799222 
L 163.505604 -192.997088 
L 160.978188 -193.185816 
L 158.450771 -193.369243 
L 155.923355 -193.551139 
L 153.395939 -193.734747 
L 150.868522 -193.922389 
L 148.341106 -194.115191 
L 145.81369 -194.312975 
L 143.286273 -194.51433 
L 140.758857 -194.716831 
L 138.23144 -194.917374 
L 135.704024 -195.112558 
L 133.176608 -195.299069 
L 130.649191 -195.474008 
L 128.121775 -195.63512 
L 125.594359 -195.780929 
L 123.066942 -195.910761 
L 120.539526 -196.024675 
L 118.01211 -196.123337 
z
" style="stroke: #101010"/>
    </defs>
    <g clip-path="url(#p618a89a423)">
     <use xlink:href="#m577490a4ab" x="0" y="352.739906" style="fill: #6e6e6e; stroke: #101010"/>
    </g>
   </g>
   <g id="FillBetweenPolyCollection_7">
    <defs>
     <path id="ma1f4edec41" d="M 139.126819 -167.844434 
L 139.126819 -176.286733 
L 141.166662 -176.497257 
L 143.206505 -176.703652 
L 145.246349 -176.905031 
L 147.286192 -177.100639 
L 149.326035 -177.289875 
L 151.365878 -177.472301 
L 153.405721 -177.647657 
L 155.445565 -177.815862 
L 157.485408 -177.977014 
L 159.525251 -178.131387 
L 161.565094 -178.279418 
L 163.604937 -178.421691 
L 165.644781 -178.558915 
L 167.684624 -178.691902 
L 169.724467 -178.821537 
L 171.76431 -178.948743 
L 173.804154 -179.074452 
L 175.843997 -179.199569 
L 177.88384 -179.324939 
L 179.923683 -179.451312 
L 181.963526 -179.579312 
L 184.00337 -179.709412 
L 186.043213 -179.841909 
L 188.083056 -179.976904 
L 190.122899 -180.114291 
L 192.162742 -180.253747 
L 194.202586 -180.394735 
L 196.242429 -180.536507 
L 198.282272 -180.678117 
L 200.322115 -180.818436 
L 202.361958 -180.956183 
L 204.401802 -181.089946 
L 206.441645 -181.21822 
L 208.481488 -181.339442 
L 210.521331 -181.45203 
L 212.561174 -181.55442 
L 214.601018 -181.645109 
L 216.640861 -181.722688 
L 218.680704 -181.785879 
L 220.720547 -181.833566 
L 222.76039 -181.864819 
L 224.800234 -181.878917 
L 226.840077 -181.875354 
L 228.87992 -181.853856 
L 230.919763 -181.814369 
L 232.959606 -181.757063 
L 234.99945 -181.682309 
L 237.039293 -181.590665 
L 239.079136 -181.482853 
L 241.118979 -181.359727 
L 243.158822 -181.222246 
L 245.198666 -181.071444 
L 247.238509 -180.908398 
L 249.278352 -180.7342 
L 251.318195 -180.549931 
L 253.358039 -180.35664 
L 255.397882 -180.155325 
L 257.437725 -179.946925 
L 259.477568 -179.732307 
L 261.517411 -179.512271 
L 263.557255 -179.287551 
L 265.597098 -179.058823 
L 267.636941 -178.826718 
L 269.676784 -178.591837 
L 271.716627 -178.354766 
L 273.756471 -178.116092 
L 275.796314 -177.876418 
L 277.836157 -177.636379 
L 279.876 -177.396648 
L 281.915843 -177.157949 
L 283.955687 -176.921053 
L 285.99553 -176.686779 
L 288.035373 -176.455988 
L 290.075216 -176.229571 
L 292.115059 -176.008434 
L 294.154903 -175.793482 
L 296.194746 -175.585595 
L 298.234589 -175.385612 
L 300.274432 -175.1943 
L 302.314275 -175.012343 
L 304.354119 -174.840314 
L 306.393962 -174.67866 
L 308.433805 -174.527693 
L 310.473648 -174.38757 
L 312.513491 -174.258299 
L 314.553335 -174.139729 
L 316.593178 -174.031559 
L 318.633021 -173.933347 
L 320.672864 -173.844518 
L 322.712708 -173.764387 
L 324.752551 -173.692173 
L 326.792394 -173.627025 
L 328.832237 -173.568043 
L 330.87208 -173.514302 
L 332.911924 -173.464879 
L 334.951767 -173.418872 
L 336.99161 -173.375424 
L 339.031453 -173.333739 
L 341.071296 -173.293102 
L 341.071296 -170.838065 
L 341.071296 -170.838065 
L 339.031453 -170.797428 
L 336.99161 -170.755743 
L 334.951767 -170.712295 
L 332.911924 -170.666288 
L 330.87208 -170.616864 
L 328.832237 -170.563124 
L 326.792394 -170.504142 
L 324.752551 -170.438993 
L 322.712708 -170.36678 
L 320.672864 -170.286649 
L 318.633021 -170.19782 
L 316.593178 -170.099608 
L 314.553335 -169.991438 
L 312.513491 -169.872868 
L 310.473648 -169.743597 
L 308.433805 -169.603474 
L 306.393962 -169.452506 
L 304.354119 -169.290853 
L 302.314275 -169.118824 
L 300.274432 -168.936867 
L 298.234589 -168.745555 
L 296.194746 -168.545571 
L 294.154903 -168.337685 
L 292.115059 -168.122733 
L 290.075216 -167.901596 
L 288.035373 -167.675179 
L 285.99553 -167.444388 
L 283.955687 -167.210114 
L 281.915843 -166.973217 
L 279.876 -166.734518 
L 277.836157 -166.494788 
L 275.796314 -166.254749 
L 273.756471 -166.015075 
L 271.716627 -165.7764 
L 269.676784 -165.539329 
L 267.636941 -165.304448 
L 265.597098 -165.072344 
L 263.557255 -164.843616 
L 261.517411 -164.618895 
L 259.477568 -164.398859 
L 257.437725 -164.184242 
L 255.397882 -163.975841 
L 253.358039 -163.774527 
L 251.318195 -163.581236 
L 249.278352 -163.396967 
L 247.238509 -163.222769 
L 245.198666 -163.059723 
L 243.158822 -162.908921 
L 241.118979 -162.77144 
L 239.079136 -162.648314 
L 237.039293 -162.540501 
L 234.99945 -162.448858 
L 232.959606 -162.374104 
L 230.919763 -162.316798 
L 228.87992 -162.277311 
L 226.840077 -162.255812 
L 224.800234 -162.25225 
L 222.76039 -162.266347 
L 220.720547 -162.297601 
L 218.680704 -162.345288 
L 216.640861 -162.408479 
L 214.601018 -162.486058 
L 212.561174 -162.576746 
L 210.521331 -162.679136 
L 208.481488 -162.791724 
L 206.441645 -162.912947 
L 204.401802 -163.041221 
L 202.361958 -163.174984 
L 200.322115 -163.312731 
L 198.282272 -163.45305 
L 196.242429 -163.594659 
L 194.202586 -163.736432 
L 192.162742 -163.87742 
L 190.122899 -164.016876 
L 188.083056 -164.154263 
L 186.043213 -164.289257 
L 184.00337 -164.421754 
L 181.963526 -164.551854 
L 179.923683 -164.679855 
L 177.88384 -164.806227 
L 175.843997 -164.931597 
L 173.804154 -165.056715 
L 171.76431 -165.182424 
L 169.724467 -165.30963 
L 167.684624 -165.439264 
L 165.644781 -165.572252 
L 163.604937 -165.709476 
L 161.565094 -165.851748 
L 159.525251 -165.999779 
L 157.485408 -166.154152 
L 155.445565 -166.315305 
L 153.405721 -166.483509 
L 151.365878 -166.658865 
L 149.326035 -166.841292 
L 147.286192 -167.030528 
L 145.246349 -167.226136 
L 143.206505 -167.427515 
L 141.166662 -167.63391 
L 139.126819 -167.844434 
z
" style="stroke: #101010"/>
    </defs>
    <g clip-path="url(#p618a89a423)">
     <use xlink:href="#ma1f4edec41" x="0" y="352.739906" style="fill: #1a1a1a; stroke: #101010"/>
    </g>
   </g>
   <g id="FillBetweenPolyCollection_8">
    <defs>
     <path id="m18311d84fa" d="M 144.648861 -144.926277 
L 144.648861 -150.138223 
L 146.561993 -150.314603 
L 148.475125 -150.492479 
L 150.388257 -150.671382 
L 152.301389 -150.85093 
L 154.214521 -151.030838 
L 156.127653 -151.210916 
L 158.040785 -151.39106 
L 159.953917 -151.57125 
L 161.867048 -151.75153 
L 163.78018 -151.931999 
L 165.693312 -152.112794 
L 167.606444 -152.294071 
L 169.519576 -152.475996 
L 171.432708 -152.658727 
L 173.34584 -152.842406 
L 175.258972 -153.027153 
L 177.172104 -153.213056 
L 179.085236 -153.400175 
L 180.998367 -153.588536 
L 182.911499 -153.778132 
L 184.824631 -153.968924 
L 186.737763 -154.160838 
L 188.650895 -154.35376 
L 190.564027 -154.547529 
L 192.477159 -154.741923 
L 194.390291 -154.936648 
L 196.303423 -155.131313 
L 198.216554 -155.325417 
L 200.129686 -155.51832 
L 202.042818 -155.709227 
L 203.95595 -155.897165 
L 205.869082 -156.080977 
L 207.782214 -156.259313 
L 209.695346 -156.430632 
L 211.608478 -156.593221 
L 213.52161 -156.745214 
L 215.434742 -156.884635 
L 217.347873 -157.00944 
L 219.261005 -157.117576 
L 221.174137 -157.20704 
L 223.087269 -157.275951 
L 225.000401 -157.322612 
L 226.913533 -157.345583 
L 228.826665 -157.343736 
L 230.739797 -157.316309 
L 232.652929 -157.26295 
L 234.566061 -157.183746 
L 236.479192 -157.079233 
L 238.392324 -156.950403 
L 240.305456 -156.798684 
L 242.218588 -156.625913 
L 244.13172 -156.434295 
L 246.044852 -156.226348 
L 247.957984 -156.004841 
L 249.871116 -155.772725 
L 251.784248 -155.533061 
L 253.69738 -155.288942 
L 255.610511 -155.043417 
L 257.523643 -154.799423 
L 259.436775 -154.55971 
L 261.349907 -154.326783 
L 263.263039 -154.10285 
L 265.176171 -153.889771 
L 267.089303 -153.689029 
L 269.002435 -153.501705 
L 270.915567 -153.328464 
L 272.828698 -153.169557 
L 274.74183 -153.024832 
L 276.654962 -152.893754 
L 278.568094 -152.77544 
L 280.481226 -152.668698 
L 282.394358 -152.572075 
L 284.30749 -152.483916 
L 286.220622 -152.402418 
L 288.133754 -152.325689 
L 290.046886 -152.251818 
L 291.960017 -152.178922 
L 293.873149 -152.105208 
L 295.786281 -152.029022 
L 297.699413 -151.948889 
L 299.612545 -151.863547 
L 301.525677 -151.771978 
L 303.438809 -151.673418 
L 305.351941 -151.567367 
L 307.265073 -151.453592 
L 309.178205 -151.33211 
L 311.091336 -151.203178 
L 313.004468 -151.067268 
L 314.9176 -150.925038 
L 316.830732 -150.777306 
L 318.743864 -150.625013 
L 320.656996 -150.469191 
L 322.570128 -150.31093 
L 324.48326 -150.15135 
L 326.396392 -149.991564 
L 328.309524 -149.83266 
L 330.222655 -149.675675 
L 332.135787 -149.521578 
L 334.048919 -149.371253 
L 334.048919 -145.693247 
L 334.048919 -145.693247 
L 332.135787 -145.542922 
L 330.222655 -145.388825 
L 328.309524 -145.23184 
L 326.396392 -145.072936 
L 324.48326 -144.91315 
L 322.570128 -144.75357 
L 320.656996 -144.595309 
L 318.743864 -144.439487 
L 316.830732 -144.287194 
L 314.9176 -144.139462 
L 313.004468 -143.997232 
L 311.091336 -143.861322 
L 309.178205 -143.73239 
L 307.265073 -143.610908 
L 305.351941 -143.497133 
L 303.438809 -143.391082 
L 301.525677 -143.292522 
L 299.612545 -143.200953 
L 297.699413 -143.115611 
L 295.786281 -143.035478 
L 293.873149 -142.959292 
L 291.960017 -142.885578 
L 290.046886 -142.812682 
L 288.133754 -142.738811 
L 286.220622 -142.662082 
L 284.30749 -142.580584 
L 282.394358 -142.492425 
L 280.481226 -142.395802 
L 278.568094 -142.28906 
L 276.654962 -142.170746 
L 274.74183 -142.039668 
L 272.828698 -141.894943 
L 270.915567 -141.736036 
L 269.002435 -141.562795 
L 267.089303 -141.375471 
L 265.176171 -141.174729 
L 263.263039 -140.96165 
L 261.349907 -140.737717 
L 259.436775 -140.50479 
L 257.523643 -140.265077 
L 255.610511 -140.021083 
L 253.69738 -139.775558 
L 251.784248 -139.531439 
L 249.871116 -139.291775 
L 247.957984 -139.059659 
L 246.044852 -138.838152 
L 244.13172 -138.630205 
L 242.218588 -138.438587 
L 240.305456 -138.265816 
L 238.392324 -138.114097 
L 236.479192 -137.985267 
L 234.566061 -137.880754 
L 232.652929 -137.80155 
L 230.739797 -137.748191 
L 228.826665 -137.720764 
L 226.913533 -137.718917 
L 225.000401 -137.741888 
L 223.087269 -137.788549 
L 221.174137 -137.85746 
L 219.261005 -137.946924 
L 217.347873 -138.05506 
L 215.434742 -138.179865 
L 213.52161 -138.319286 
L 211.608478 -138.471279 
L 209.695346 -138.633868 
L 207.782214 -138.805187 
L 205.869082 -138.983523 
L 203.95595 -139.167335 
L 202.042818 -139.355273 
L 200.129686 -139.54618 
L 198.216554 -139.739083 
L 196.303423 -139.933187 
L 194.390291 -140.127852 
L 192.477159 -140.322577 
L 190.564027 -140.516971 
L 188.650895 -140.71074 
L 186.737763 -140.903662 
L 184.824631 -141.095576 
L 182.911499 -141.286368 
L 180.998367 -141.475964 
L 179.085236 -141.664325 
L 177.172104 -141.851444 
L 175.258972 -142.037347 
L 173.34584 -142.222094 
L 171.432708 -142.405773 
L 169.519576 -142.588504 
L 167.606444 -142.770429 
L 165.693312 -142.951706 
L 163.78018 -143.132501 
L 161.867048 -143.31297 
L 159.953917 -143.49325 
L 158.040785 -143.67344 
L 156.127653 -143.853584 
L 154.214521 -144.033662 
L 152.301389 -144.21357 
L 150.388257 -144.393118 
L 148.475125 -144.572021 
L 146.561993 -144.749897 
L 144.648861 -144.926277 
z
" style="stroke: #101010"/>
    </defs>
    <g clip-path="url(#p618a89a423)">
     <use xlink:href="#m18311d84fa" x="0" y="352.739906" style="fill: #357474; stroke: #101010"/>
    </g>
   </g>
   <g id="FillBetweenPolyCollection_9">
    <defs>
     <path id="m13e83ec337" d="M 155.121015 -120.427585 
L 155.121015 -125.570248 
L 157.112763 -125.787799 
L 159.104511 -126.013642 
L 161.096259 -126.247501 
L 163.088007 -126.489095 
L 165.079755 -126.738141 
L 167.071503 -126.994342 
L 169.063251 -127.257381 
L 171.054999 -127.526908 
L 173.046747 -127.80253 
L 175.038495 -128.083787 
L 177.030243 -128.370139 
L 179.021991 -128.660937 
L 181.013739 -128.955404 
L 183.005487 -129.252603 
L 184.997235 -129.551415 
L 186.988983 -129.85051 
L 188.980731 -130.148327 
L 190.972479 -130.443054 
L 192.964228 -130.73262 
L 194.955976 -131.014694 
L 196.947724 -131.286699 
L 198.939472 -131.545841 
L 200.93122 -131.789151 
L 202.922968 -132.013543 
L 204.914716 -132.215897 
L 206.906464 -132.393141 
L 208.898212 -132.542361 
L 210.88996 -132.660905 
L 212.881708 -132.746498 
L 214.873456 -132.797349 
L 216.865204 -132.81225 
L 218.856952 -132.790663 
L 220.8487 -132.732782 
L 222.840448 -132.639573 
L 224.832196 -132.512781 
L 226.823944 -132.354915 
L 228.815692 -132.169192 
L 230.80744 -131.95946 
L 232.799188 -131.730091 
L 234.790936 -131.485855 
L 236.782684 -131.231777 
L 238.774432 -130.972981 
L 240.76618 -130.714543 
L 242.757928 -130.461338 
L 244.749676 -130.217902 
L 246.741424 -129.988309 
L 248.733172 -129.776073 
L 250.72492 -129.584071 
L 252.716668 -129.414489 
L 254.708416 -129.268799 
L 256.700164 -129.147755 
L 258.691912 -129.051418 
L 260.68366 -128.979196 
L 262.675408 -128.929901 
L 264.667156 -128.901815 
L 266.658904 -128.892771 
L 268.650652 -128.90023 
L 270.6424 -128.921365 
L 272.634148 -128.953142 
L 274.625896 -128.992391 
L 276.617644 -129.035885 
L 278.609392 -129.080398 
L 280.60114 -129.122772 
L 282.592888 -129.159965 
L 284.584636 -129.189105 
L 286.576384 -129.207533 
L 288.568132 -129.212843 
L 290.55988 -129.202922 
L 292.551628 -129.175985 
L 294.543376 -129.130598 
L 296.535124 -129.065711 
L 298.526872 -128.980675 
L 300.51862 -128.875252 
L 302.510368 -128.74962 
L 304.502116 -128.604373 
L 306.493864 -128.440501 
L 308.485612 -128.259366 
L 310.47736 -128.062668 
L 312.469108 -127.8524 
L 314.460856 -127.630792 
L 316.452604 -127.40025 
L 318.444352 -127.163291 
L 320.4361 -126.922476 
L 322.427848 -126.680337 
L 324.419596 -126.439315 
L 326.411344 -126.201699 
L 328.403092 -125.969572 
L 330.394841 -125.74477 
L 332.386589 -125.528845 
L 334.378337 -125.323053 
L 336.370085 -125.128336 
L 338.361833 -124.945333 
L 340.353581 -124.774389 
L 342.345329 -124.615582 
L 344.337077 -124.46875 
L 346.328825 -124.333534 
L 348.320573 -124.209409 
L 350.312321 -124.095736 
L 352.304069 -123.991793 
L 352.304069 -122.006041 
L 352.304069 -122.006041 
L 350.312321 -121.902097 
L 348.320573 -121.788424 
L 346.328825 -121.6643 
L 344.337077 -121.529083 
L 342.345329 -121.382252 
L 340.353581 -121.223444 
L 338.361833 -121.0525 
L 336.370085 -120.869497 
L 334.378337 -120.67478 
L 332.386589 -120.468988 
L 330.394841 -120.253064 
L 328.403092 -120.028261 
L 326.411344 -119.796134 
L 324.419596 -119.558518 
L 322.427848 -119.317497 
L 320.4361 -119.075358 
L 318.444352 -118.834542 
L 316.452604 -118.597584 
L 314.460856 -118.367042 
L 312.469108 -118.145433 
L 310.47736 -117.935165 
L 308.485612 -117.738468 
L 306.493864 -117.557333 
L 304.502116 -117.39346 
L 302.510368 -117.248213 
L 300.51862 -117.122582 
L 298.526872 -117.017158 
L 296.535124 -116.932122 
L 294.543376 -116.867236 
L 292.551628 -116.821849 
L 290.55988 -116.794911 
L 288.568132 -116.784991 
L 286.576384 -116.790301 
L 284.584636 -116.808728 
L 282.592888 -116.837868 
L 280.60114 -116.875061 
L 278.609392 -116.917435 
L 276.617644 -116.961949 
L 274.625896 -117.005442 
L 272.634148 -117.044692 
L 270.6424 -117.076468 
L 268.650652 -117.097603 
L 266.658904 -117.105062 
L 264.667156 -117.096018 
L 262.675408 -117.067932 
L 260.68366 -117.018637 
L 258.691912 -116.946415 
L 256.700164 -116.850079 
L 254.708416 -116.729035 
L 252.716668 -116.583344 
L 250.72492 -116.413762 
L 248.733172 -116.22176 
L 246.741424 -116.009525 
L 244.749676 -115.779932 
L 242.757928 -115.536495 
L 240.76618 -115.28329 
L 238.774432 -115.024853 
L 236.782684 -114.766057 
L 234.790936 -114.511978 
L 232.799188 -114.267742 
L 230.80744 -114.038374 
L 228.815692 -113.828642 
L 226.823944 -113.642918 
L 224.832196 -113.485052 
L 222.840448 -113.35826 
L 220.8487 -113.265051 
L 218.856952 -113.20717 
L 216.865204 -113.185583 
L 214.873456 -113.200484 
L 212.881708 -113.251335 
L 210.88996 -113.336928 
L 208.898212 -113.455472 
L 206.906464 -113.604692 
L 204.914716 -113.781937 
L 202.922968 -113.98429 
L 200.93122 -114.208682 
L 198.939472 -114.451992 
L 196.947724 -114.711134 
L 194.955976 -114.98314 
L 192.964228 -115.265214 
L 190.972479 -115.554779 
L 188.980731 -115.849506 
L 186.988983 -116.147323 
L 184.997235 -116.446419 
L 183.005487 -116.74523 
L 181.013739 -117.042429 
L 179.021991 -117.336896 
L 177.030243 -117.627694 
L 175.038495 -117.914046 
L 173.046747 -118.195304 
L 171.054999 -118.470925 
L 169.063251 -118.740453 
L 167.071503 -119.003491 
L 165.079755 -119.259692 
L 163.088007 -119.508738 
L 161.096259 -119.750333 
L 159.104511 -119.984191 
L 157.112763 -120.210034 
L 155.121015 -120.427585 
z
" style="stroke: #101010"/>
    </defs>
    <g clip-path="url(#p618a89a423)">
     <use xlink:href="#m13e83ec337" x="0" y="352.739906" style="fill: #4e5660; stroke: #101010"/>
    </g>
   </g>
   <g id="FillBetweenPolyCollection_10">
    <defs>
     <path id="m8b0b6009aa" d="M 98.94792 -97.822913 
L 98.94792 -99.108254 
L 101.326901 -99.114745 
L 103.705882 -99.117621 
L 106.084863 -99.117552 
L 108.463844 -99.115415 
L 110.842825 -99.112274 
L 113.221806 -99.109353 
L 115.600787 -99.108008 
L 117.979768 -99.109693 
L 120.358749 -99.115932 
L 122.73773 -99.128285 
L 125.116711 -99.148321 
L 127.495692 -99.1776 
L 129.874672 -99.217654 
L 132.253653 -99.269977 
L 134.632634 -99.336019 
L 137.011615 -99.417186 
L 139.390596 -99.514831 
L 141.769577 -99.63026 
L 144.148558 -99.76472 
L 146.527539 -99.919385 
L 148.90652 -100.09534 
L 151.285501 -100.293544 
L 153.664482 -100.514795 
L 156.043463 -100.759675 
L 158.422443 -101.028496 
L 160.801424 -101.321233 
L 163.180405 -101.637465 
L 165.559386 -101.97631 
L 167.938367 -102.336377 
L 170.317348 -102.715721 
L 172.696329 -103.11183 
L 175.07531 -103.521613 
L 177.454291 -103.941435 
L 179.833272 -104.367152 
L 182.212253 -104.794192 
L 184.591234 -105.217638 
L 186.970215 -105.632341 
L 189.349195 -106.033041 
L 191.728176 -106.414497 
L 194.107157 -106.771613 
L 196.486138 -107.099568 
L 198.865119 -107.393931 
L 201.2441 -107.650768 
L 203.623081 -107.86673 
L 206.002062 -108.039123 
L 208.381043 -108.165971 
L 210.760024 -108.246051 
L 213.139005 -108.278917 
L 215.517986 -108.264912 
L 217.896966 -108.20516 
L 220.275947 -108.101552 
L 222.654928 -107.956709 
L 225.033909 -107.773934 
L 227.41289 -107.557151 
L 229.791871 -107.310819 
L 232.170852 -107.039835 
L 234.549833 -106.749409 
L 236.928814 -106.444935 
L 239.307795 -106.131836 
L 241.686776 -105.815412 
L 244.065757 -105.500678 
L 246.444738 -105.192208 
L 248.823718 -104.894001 
L 251.202699 -104.609357 
L 253.58168 -104.340795 
L 255.960661 -104.089996 
L 258.339642 -103.857795 
L 260.718623 -103.644205 
L 263.097604 -103.448488 
L 265.476585 -103.269254 
L 267.855566 -103.104594 
L 270.234547 -102.952227 
L 272.613528 -102.809661 
L 274.992509 -102.674354 
L 277.37149 -102.54386 
L 279.75047 -102.415957 
L 282.129451 -102.288758 
L 284.508432 -102.160776 
L 286.887413 -102.030973 
L 289.266394 -101.898763 
L 291.645375 -101.763996 
L 294.024356 -101.626906 
L 296.403337 -101.488051 
L 298.782318 -101.348229 
L 301.161299 -101.208393 
L 303.54028 -101.069568 
L 305.919261 -100.93277 
L 308.298241 -100.798936 
L 310.677222 -100.66887 
L 313.056203 -100.543208 
L 315.435184 -100.42239 
L 317.814165 -100.306664 
L 320.193146 -100.196089 
L 322.572127 -100.090559 
L 324.951108 -99.989838 
L 327.330089 -99.893593 
L 329.70907 -99.801436 
L 332.088051 -99.712965 
L 334.467032 -99.627796 
L 334.467032 -97.303371 
L 334.467032 -97.303371 
L 332.088051 -97.218201 
L 329.70907 -97.12973 
L 327.330089 -97.037574 
L 324.951108 -96.941329 
L 322.572127 -96.840608 
L 320.193146 -96.735078 
L 317.814165 -96.624502 
L 315.435184 -96.508776 
L 313.056203 -96.387959 
L 310.677222 -96.262296 
L 308.298241 -96.132231 
L 305.919261 -95.998397 
L 303.54028 -95.861598 
L 301.161299 -95.722774 
L 298.782318 -95.582938 
L 296.403337 -95.443116 
L 294.024356 -95.304261 
L 291.645375 -95.167171 
L 289.266394 -95.032404 
L 286.887413 -94.900194 
L 284.508432 -94.770391 
L 282.129451 -94.642409 
L 279.75047 -94.515209 
L 277.37149 -94.387307 
L 274.992509 -94.256812 
L 272.613528 -94.121505 
L 270.234547 -93.97894 
L 267.855566 -93.826573 
L 265.476585 -93.661912 
L 263.097604 -93.482679 
L 260.718623 -93.286961 
L 258.339642 -93.073372 
L 255.960661 -92.841171 
L 253.58168 -92.590372 
L 251.202699 -92.321809 
L 248.823718 -92.037166 
L 246.444738 -91.738958 
L 244.065757 -91.430489 
L 241.686776 -91.115754 
L 239.307795 -90.799331 
L 236.928814 -90.486232 
L 234.549833 -90.181757 
L 232.170852 -89.891332 
L 229.791871 -89.620347 
L 227.41289 -89.374016 
L 225.033909 -89.157233 
L 222.654928 -88.974458 
L 220.275947 -88.829614 
L 217.896966 -88.726006 
L 215.517986 -88.666255 
L 213.139005 -88.65225 
L 210.760024 -88.685116 
L 208.381043 -88.765196 
L 206.002062 -88.892044 
L 203.623081 -89.064437 
L 201.2441 -89.280398 
L 198.865119 -89.537235 
L 196.486138 -89.831599 
L 194.107157 -90.159554 
L 191.728176 -90.51667 
L 189.349195 -90.898126 
L 186.970215 -91.298826 
L 184.591234 -91.713529 
L 182.212253 -92.136975 
L 179.833272 -92.564014 
L 177.454291 -92.989732 
L 175.07531 -93.409553 
L 172.696329 -93.819337 
L 170.317348 -94.215445 
L 167.938367 -94.59479 
L 165.559386 -94.954856 
L 163.180405 -95.293702 
L 160.801424 -95.609933 
L 158.422443 -95.902671 
L 156.043463 -96.171491 
L 153.664482 -96.416371 
L 151.285501 -96.637622 
L 148.90652 -96.835827 
L 146.527539 -97.011782 
L 144.148558 -97.166447 
L 141.769577 -97.300907 
L 139.390596 -97.416336 
L 137.011615 -97.513981 
L 134.632634 -97.595147 
L 132.253653 -97.66119 
L 129.874672 -97.713513 
L 127.495692 -97.753566 
L 125.116711 -97.782845 
L 122.73773 -97.802882 
L 120.358749 -97.815234 
L 117.979768 -97.821473 
L 115.600787 -97.823159 
L 113.221806 -97.821814 
L 110.842825 -97.818892 
L 108.463844 -97.815751 
L 106.084863 -97.813615 
L 103.705882 -97.813546 
L 101.326901 -97.816422 
L 98.94792 -97.822913 
z
" style="stroke: #101010"/>
    </defs>
    <g clip-path="url(#p618a89a423)">
     <use xlink:href="#m8b0b6009aa" x="0" y="352.739906" style="fill: #c0815e; stroke: #101010"/>
    </g>
   </g>
   <g id="FillBetweenPolyCollection_11">
    <defs>
     <path id="m989a47559f" d="M 133.850479 -70.144367 
L 133.850479 -77.720133 
L 136.040789 -77.914216 
L 138.2311 -78.104303 
L 140.421411 -78.289694 
L 142.611721 -78.469846 
L 144.802032 -78.644387 
L 146.992343 -78.813124 
L 149.182653 -78.976047 
L 151.372964 -79.133327 
L 153.563275 -79.285305 
L 155.753585 -79.432487 
L 157.943896 -79.575519 
L 160.134207 -79.715169 
L 162.324518 -79.852304 
L 164.514828 -79.987855 
L 166.705139 -80.122793 
L 168.89545 -80.258089 
L 171.08576 -80.394683 
L 173.276071 -80.533449 
L 175.466382 -80.675158 
L 177.656692 -80.820447 
L 179.847003 -80.96979 
L 182.037314 -81.123466 
L 184.227625 -81.28154 
L 186.417935 -81.443845 
L 188.608246 -81.609969 
L 190.798557 -81.779252 
L 192.988867 -81.950793 
L 195.179178 -82.123453 
L 197.369489 -82.295884 
L 199.559799 -82.466548 
L 201.75011 -82.633756 
L 203.940421 -82.795709 
L 206.130731 -82.950537 
L 208.321042 -83.096357 
L 210.511353 -83.231316 
L 212.701664 -83.353646 
L 214.891974 -83.461713 
L 217.082285 -83.554057 
L 219.272596 -83.629437 
L 221.462906 -83.686858 
L 223.653217 -83.725599 
L 225.843528 -83.745223 
L 228.033838 -83.745583 
L 230.224149 -83.726821 
L 232.41446 -83.689347 
L 234.60477 -83.633824 
L 236.795081 -83.561132 
L 238.985392 -83.472339 
L 241.175703 -83.368661 
L 243.366013 -83.25142 
L 245.556324 -83.122003 
L 247.746635 -82.981825 
L 249.936945 -82.83229 
L 252.127256 -82.674762 
L 254.317567 -82.510532 
L 256.507877 -82.340799 
L 258.698188 -82.166656 
L 260.888499 -81.989075 
L 263.07881 -81.808904 
L 265.26912 -81.626869 
L 267.459431 -81.443576 
L 269.649742 -81.259519 
L 271.840052 -81.075091 
L 274.030363 -80.890597 
L 276.220674 -80.706268 
L 278.410984 -80.522271 
L 280.601295 -80.338729 
L 282.791606 -80.155727 
L 284.981916 -79.97333 
L 287.172227 -79.791589 
L 289.362538 -79.610555 
L 291.552849 -79.430283 
L 293.743159 -79.25084 
L 295.93347 -79.072312 
L 298.123781 -78.894804 
L 300.314091 -78.718447 
L 302.504402 -78.543396 
L 304.694713 -78.369832 
L 306.885023 -78.197958 
L 309.075334 -78.028 
L 311.265645 -77.860202 
L 313.455956 -77.69482 
L 315.646266 -77.532119 
L 317.836577 -77.372365 
L 320.026888 -77.215819 
L 322.217198 -77.062732 
L 324.407509 -76.913333 
L 326.59782 -76.767831 
L 328.78813 -76.6264 
L 330.978441 -76.489182 
L 333.168752 -76.356281 
L 335.359062 -76.227762 
L 337.549373 -76.103649 
L 339.739684 -75.98393 
L 341.929995 -75.868559 
L 344.120305 -75.757459 
L 346.310616 -75.650529 
L 348.500927 -75.547649 
L 350.691237 -75.448692 
L 350.691237 -72.415808 
L 350.691237 -72.415808 
L 348.500927 -72.316851 
L 346.310616 -72.213971 
L 344.120305 -72.107041 
L 341.929995 -71.995941 
L 339.739684 -71.88057 
L 337.549373 -71.760851 
L 335.359062 -71.636738 
L 333.168752 -71.508219 
L 330.978441 -71.375318 
L 328.78813 -71.2381 
L 326.59782 -71.096669 
L 324.407509 -70.951167 
L 322.217198 -70.801768 
L 320.026888 -70.648681 
L 317.836577 -70.492135 
L 315.646266 -70.332381 
L 313.455956 -70.16968 
L 311.265645 -70.004298 
L 309.075334 -69.8365 
L 306.885023 -69.666542 
L 304.694713 -69.494668 
L 302.504402 -69.321104 
L 300.314091 -69.146053 
L 298.123781 -68.969696 
L 295.93347 -68.792188 
L 293.743159 -68.61366 
L 291.552849 -68.434217 
L 289.362538 -68.253945 
L 287.172227 -68.072911 
L 284.981916 -67.89117 
L 282.791606 -67.708773 
L 280.601295 -67.525771 
L 278.410984 -67.342229 
L 276.220674 -67.158232 
L 274.030363 -66.973903 
L 271.840052 -66.789409 
L 269.649742 -66.604981 
L 267.459431 -66.420924 
L 265.26912 -66.237631 
L 263.07881 -66.055596 
L 260.888499 -65.875425 
L 258.698188 -65.697844 
L 256.507877 -65.523701 
L 254.317567 -65.353968 
L 252.127256 -65.189738 
L 249.936945 -65.03221 
L 247.746635 -64.882675 
L 245.556324 -64.742497 
L 243.366013 -64.61308 
L 241.175703 -64.495839 
L 238.985392 -64.392161 
L 236.795081 -64.303368 
L 234.60477 -64.230676 
L 232.41446 -64.175153 
L 230.224149 -64.137679 
L 228.033838 -64.118917 
L 225.843528 -64.119277 
L 223.653217 -64.138901 
L 221.462906 -64.177642 
L 219.272596 -64.235063 
L 217.082285 -64.310443 
L 214.891974 -64.402787 
L 212.701664 -64.510854 
L 210.511353 -64.633184 
L 208.321042 -64.768143 
L 206.130731 -64.913963 
L 203.940421 -65.068791 
L 201.75011 -65.230744 
L 199.559799 -65.397952 
L 197.369489 -65.568616 
L 195.179178 -65.741047 
L 192.988867 -65.913707 
L 190.798557 -66.085248 
L 188.608246 -66.254531 
L 186.417935 -66.420655 
L 184.227625 -66.58296 
L 182.037314 -66.741034 
L 179.847003 -66.89471 
L 177.656692 -67.044053 
L 175.466382 -67.189342 
L 173.276071 -67.331051 
L 171.08576 -67.469817 
L 168.89545 -67.606411 
L 166.705139 -67.741707 
L 164.514828 -67.876645 
L 162.324518 -68.012196 
L 160.134207 -68.149331 
L 157.943896 -68.288981 
L 155.753585 -68.432013 
L 153.563275 -68.579195 
L 151.372964 -68.731173 
L 149.182653 -68.888453 
L 146.992343 -69.051376 
L 144.802032 -69.220113 
L 142.611721 -69.394654 
L 140.421411 -69.574806 
L 138.2311 -69.760197 
L 136.040789 -69.950284 
L 133.850479 -70.144367 
z
" style="stroke: #101010"/>
    </defs>
    <g clip-path="url(#p618a89a423)">
     <use xlink:href="#m989a47559f" x="0" y="352.739906" style="fill: #91a694; stroke: #101010"/>
    </g>
   </g>
   <g id="FillBetweenPolyCollection_12">
    <defs>
     <path id="mbb69d63ab7" d="M 140.510362 -46.523952 
L 140.510362 -52.273881 
L 142.687361 -52.493243 
L 144.864359 -52.711126 
L 147.041358 -52.92577 
L 149.218357 -53.135583 
L 151.395356 -53.339205 
L 153.572355 -53.535551 
L 155.749354 -53.723853 
L 157.926353 -53.903676 
L 160.103352 -54.074922 
L 162.28035 -54.237817 
L 164.457349 -54.392884 
L 166.634348 -54.540891 
L 168.811347 -54.682803 
L 170.988346 -54.819715 
L 173.165345 -54.95278 
L 175.342344 -55.083151 
L 177.519343 -55.211912 
L 179.696341 -55.340028 
L 181.87334 -55.468303 
L 184.050339 -55.597357 
L 186.227338 -55.727609 
L 188.404337 -55.859284 
L 190.581336 -55.992428 
L 192.758335 -56.126937 
L 194.935334 -56.262589 
L 197.112332 -56.39909 
L 199.289331 -56.536105 
L 201.46633 -56.6733 
L 203.643329 -56.810371 
L 205.820328 -56.947063 
L 207.997327 -57.08318 
L 210.174326 -57.218586 
L 212.351325 -57.353189 
L 214.528324 -57.486925 
L 216.705322 -57.619728 
L 218.882321 -57.751498 
L 221.05932 -57.882068 
L 223.236319 -58.011175 
L 225.413318 -58.13843 
L 227.590317 -58.263301 
L 229.767316 -58.385103 
L 231.944315 -58.502994 
L 234.121313 -58.61599 
L 236.298312 -58.722975 
L 238.475311 -58.822736 
L 240.65231 -58.91399 
L 242.829309 -58.995424 
L 245.006308 -59.065735 
L 247.183307 -59.123673 
L 249.360306 -59.168072 
L 251.537304 -59.197894 
L 253.714303 -59.21225 
L 255.891302 -59.210431 
L 258.068301 -59.191922 
L 260.2453 -59.156413 
L 262.422299 -59.1038 
L 264.599298 -59.034187 
L 266.776297 -58.947876 
L 268.953295 -58.845349 
L 271.130294 -58.727256 
L 273.307293 -58.594388 
L 275.484292 -58.447657 
L 277.661291 -58.288066 
L 279.83829 -58.116685 
L 282.015289 -57.934624 
L 284.192288 -57.743004 
L 286.369287 -57.542938 
L 288.546285 -57.335505 
L 290.723284 -57.121735 
L 292.900283 -56.902592 
L 295.077282 -56.678968 
L 297.254281 -56.451675 
L 299.43128 -56.221445 
L 301.608279 -55.988934 
L 303.785278 -55.754732 
L 305.962276 -55.51937 
L 308.139275 -55.283334 
L 310.316274 -55.047082 
L 312.493273 -54.811056 
L 314.670272 -54.575693 
L 316.847271 -54.341441 
L 319.02427 -54.108763 
L 321.201269 -53.878144 
L 323.378267 -53.65009 
L 325.555266 -53.425127 
L 327.732265 -53.203795 
L 329.909264 -52.986637 
L 332.086263 -52.77419 
L 334.263262 -52.566974 
L 336.440261 -52.365476 
L 338.61726 -52.170142 
L 340.794258 -51.981367 
L 342.971257 -51.799489 
L 345.148256 -51.624778 
L 347.325255 -51.457445 
L 349.502254 -51.297633 
L 351.679253 -51.145428 
L 353.856252 -51.00086 
L 356.033251 -50.863911 
L 356.033251 -47.933922 
L 356.033251 -47.933922 
L 353.856252 -47.796974 
L 351.679253 -47.652405 
L 349.502254 -47.5002 
L 347.325255 -47.340388 
L 345.148256 -47.173055 
L 342.971257 -46.998345 
L 340.794258 -46.816466 
L 338.61726 -46.627692 
L 336.440261 -46.432358 
L 334.263262 -46.23086 
L 332.086263 -46.023643 
L 329.909264 -45.811197 
L 327.732265 -45.594039 
L 325.555266 -45.372706 
L 323.378267 -45.147743 
L 321.201269 -44.919689 
L 319.02427 -44.68907 
L 316.847271 -44.456392 
L 314.670272 -44.22214 
L 312.493273 -43.986777 
L 310.316274 -43.750751 
L 308.139275 -43.514499 
L 305.962276 -43.278464 
L 303.785278 -43.043101 
L 301.608279 -42.808899 
L 299.43128 -42.576389 
L 297.254281 -42.346158 
L 295.077282 -42.118865 
L 292.900283 -41.895241 
L 290.723284 -41.676098 
L 288.546285 -41.462328 
L 286.369287 -41.254895 
L 284.192288 -41.054829 
L 282.015289 -40.863209 
L 279.83829 -40.681148 
L 277.661291 -40.509767 
L 275.484292 -40.350176 
L 273.307293 -40.203445 
L 271.130294 -40.070577 
L 268.953295 -39.952484 
L 266.776297 -39.849957 
L 264.599298 -39.763646 
L 262.422299 -39.694034 
L 260.2453 -39.641421 
L 258.068301 -39.605911 
L 255.891302 -39.587402 
L 253.714303 -39.585583 
L 251.537304 -39.59994 
L 249.360306 -39.629761 
L 247.183307 -39.67416 
L 245.006308 -39.732098 
L 242.829309 -39.80241 
L 240.65231 -39.883844 
L 238.475311 -39.975097 
L 236.298312 -40.074858 
L 234.121313 -40.181843 
L 231.944315 -40.294839 
L 229.767316 -40.412731 
L 227.590317 -40.534533 
L 225.413318 -40.659404 
L 223.236319 -40.786658 
L 221.05932 -40.915765 
L 218.882321 -41.046336 
L 216.705322 -41.178106 
L 214.528324 -41.310909 
L 212.351325 -41.444645 
L 210.174326 -41.579248 
L 207.997327 -41.714653 
L 205.820328 -41.85077 
L 203.643329 -41.987462 
L 201.46633 -42.124533 
L 199.289331 -42.261729 
L 197.112332 -42.398743 
L 194.935334 -42.535244 
L 192.758335 -42.670897 
L 190.581336 -42.805405 
L 188.404337 -42.93855 
L 186.227338 -43.070224 
L 184.050339 -43.200476 
L 181.87334 -43.32953 
L 179.696341 -43.457806 
L 177.519343 -43.585921 
L 175.342344 -43.714682 
L 173.165345 -43.845053 
L 170.988346 -43.978119 
L 168.811347 -44.11503 
L 166.634348 -44.256942 
L 164.457349 -44.40495 
L 162.28035 -44.560016 
L 160.103352 -44.722912 
L 157.926353 -44.894158 
L 155.749354 -45.07398 
L 153.572355 -45.262282 
L 151.395356 -45.458629 
L 149.218357 -45.66225 
L 147.041358 -45.872063 
L 144.864359 -46.086707 
L 142.687361 -46.304591 
L 140.510362 -46.523952 
z
" style="stroke: #101010"/>
    </defs>
    <g clip-path="url(#p618a89a423)">
     <use xlink:href="#mbb69d63ab7" x="0" y="352.739906" style="fill: #618861; stroke: #101010"/>
    </g>
   </g>
   <g id="line2d_20">
    <path d="M 232.784537 33.474323 
L 337.050794 33.474323 
" clip-path="url(#p618a89a423)" style="fill: none; stroke: #101010; stroke-width: 1.5; stroke-linecap: round"/>
   </g>
   <g id="line2d_21">
    <path d="M 233.582975 33.474323 
L 302.21357 33.474323 
" clip-path="url(#p618a89a423)" style="fill: none; stroke: #101010; stroke-width: 4.5; stroke-linecap: round"/>
   </g>
   <g id="line2d_22">
    <path d="M 248.977448 33.474323 
" clip-path="url(#p618a89a423)" style="fill: none; stroke: #101010; stroke-width: 1.2; stroke-linecap: round"/>
    <defs>
     <path id="mfbac49b159" d="M 0 1.875 
L 0 -1.875 
" style="stroke: #ffffff; stroke-width: 0.9"/>
    </defs>
    <g clip-path="url(#p618a89a423)">
     <use xlink:href="#mfbac49b159" x="248.977448" y="33.474323" style="fill: #ffffff; stroke: #ffffff; stroke-width: 0.9"/>
    </g>
   </g>
   <g id="line2d_23">
    <path d="M 164.514385 58.007656 
L 315.313168 58.007656 
" clip-path="url(#p618a89a423)" style="fill: none; stroke: #101010; stroke-width: 1.5; stroke-linecap: round"/>
   </g>
   <g id="line2d_24">
    <path d="M 224.427464 58.007656 
L 284.977133 58.007656 
" clip-path="url(#p618a89a423)" style="fill: none; stroke: #101010; stroke-width: 4.5; stroke-linecap: round"/>
   </g>
   <g id="line2d_25">
    <path d="M 235.494418 58.007656 
" clip-path="url(#p618a89a423)" style="fill: none; stroke: #101010; stroke-width: 1.2; stroke-linecap: round"/>
    <g clip-path="url(#p618a89a423)">
     <use xlink:href="#mfbac49b159" x="235.494418" y="58.007656" style="fill: #ffffff; stroke: #ffffff; stroke-width: 0.9"/>
    </g>
   </g>
   <g id="line2d_26">
    <path d="M 166.206929 82.54099 
L 314.480089 82.54099 
" clip-path="url(#p618a89a423)" style="fill: none; stroke: #101010; stroke-width: 1.5; stroke-linecap: round"/>
   </g>
   <g id="line2d_27">
    <path d="M 201.521223 82.54099 
L 252.547608 82.54099 
" clip-path="url(#p618a89a423)" style="fill: none; stroke: #101010; stroke-width: 4.5; stroke-linecap: round"/>
   </g>
   <g id="line2d_28">
    <path d="M 226.294806 82.54099 
" clip-path="url(#p618a89a423)" style="fill: none; stroke: #101010; stroke-width: 1.2; stroke-linecap: round"/>
    <g clip-path="url(#p618a89a423)">
     <use xlink:href="#mfbac49b159" x="226.294806" y="82.54099" style="fill: #ffffff; stroke: #ffffff; stroke-width: 0.9"/>
    </g>
   </g>
   <g id="line2d_29">
    <path d="M 140.955157 107.074323 
L 336.603326 107.074323 
" clip-path="url(#p618a89a423)" style="fill: none; stroke: #101010; stroke-width: 1.5; stroke-linecap: round"/>
   </g>
   <g id="line2d_30">
    <path d="M 216.349214 107.074323 
L 270.258293 107.074323 
" clip-path="url(#p618a89a423)" style="fill: none; stroke: #101010; stroke-width: 4.5; stroke-linecap: round"/>
   </g>
   <g id="line2d_31">
    <path d="M 243.736424 107.074323 
" clip-path="url(#p618a89a423)" style="fill: none; stroke: #101010; stroke-width: 1.2; stroke-linecap: round"/>
    <g clip-path="url(#p618a89a423)">
     <use xlink:href="#mfbac49b159" x="243.736424" y="107.074323" style="fill: #ffffff; stroke: #ffffff; stroke-width: 0.9"/>
    </g>
   </g>
   <g id="line2d_32">
    <path d="M 151.974743 131.607656 
L 341.387242 131.607656 
" clip-path="url(#p618a89a423)" style="fill: none; stroke: #101010; stroke-width: 1.5; stroke-linecap: round"/>
   </g>
   <g id="line2d_33">
    <path d="M 209.225797 131.607656 
L 267.548417 131.607656 
" clip-path="url(#p618a89a423)" style="fill: none; stroke: #101010; stroke-width: 4.5; stroke-linecap: round"/>
   </g>
   <g id="line2d_34">
    <path d="M 237.929249 131.607656 
" clip-path="url(#p618a89a423)" style="fill: none; stroke: #101010; stroke-width: 1.2; stroke-linecap: round"/>
    <g clip-path="url(#p618a89a423)">
     <use xlink:href="#mfbac49b159" x="237.929249" y="131.607656" style="fill: #ffffff; stroke: #ffffff; stroke-width: 0.9"/>
    </g>
   </g>
   <g id="line2d_35">
    <path d="M 118.01211 156.14099 
L 368.22633 156.14099 
" clip-path="url(#p618a89a423)" style="fill: none; stroke: #101010; stroke-width: 1.5; stroke-linecap: round"/>
   </g>
   <g id="line2d_36">
    <path d="M 210.006282 156.14099 
L 280.505192 156.14099 
" clip-path="url(#p618a89a423)" style="fill: none; stroke: #101010; stroke-width: 4.5; stroke-linecap: round"/>
   </g>
   <g id="line2d_37">
    <path d="M 243.804306 156.14099 
" clip-path="url(#p618a89a423)" style="fill: none; stroke: #101010; stroke-width: 1.2; stroke-linecap: round"/>
    <g clip-path="url(#p618a89a423)">
     <use xlink:href="#mfbac49b159" x="243.804306" y="156.14099" style="fill: #ffffff; stroke: #ffffff; stroke-width: 0.9"/>
    </g>
   </g>
   <g id="line2d_38">
    <path d="M 139.126819 180.674323 
L 281.062143 180.674323 
" clip-path="url(#p618a89a423)" style="fill: none; stroke: #101010; stroke-width: 1.5; stroke-linecap: round"/>
   </g>
   <g id="line2d_39">
    <path d="M 185.761261 180.674323 
L 247.101607 180.674323 
" clip-path="url(#p618a89a423)" style="fill: none; stroke: #101010; stroke-width: 4.5; stroke-linecap: round"/>
   </g>
   <g id="line2d_40">
    <path d="M 227.562879 180.674323 
" clip-path="url(#p618a89a423)" style="fill: none; stroke: #101010; stroke-width: 1.2; stroke-linecap: round"/>
    <g clip-path="url(#p618a89a423)">
     <use xlink:href="#mfbac49b159" x="227.562879" y="180.674323" style="fill: #ffffff; stroke: #ffffff; stroke-width: 0.9"/>
    </g>
   </g>
   <g id="line2d_41">
    <path d="M 144.648861 205.207656 
L 334.048919 205.207656 
" clip-path="url(#p618a89a423)" style="fill: none; stroke: #101010; stroke-width: 1.5; stroke-linecap: round"/>
   </g>
   <g id="line2d_42">
    <path d="M 194.887667 205.207656 
L 256.562877 205.207656 
" clip-path="url(#p618a89a423)" style="fill: none; stroke: #101010; stroke-width: 4.5; stroke-linecap: round"/>
   </g>
   <g id="line2d_43">
    <path d="M 228.796236 205.207656 
" clip-path="url(#p618a89a423)" style="fill: none; stroke: #101010; stroke-width: 1.2; stroke-linecap: round"/>
    <g clip-path="url(#p618a89a423)">
     <use xlink:href="#mfbac49b159" x="228.796236" y="205.207656" style="fill: #ffffff; stroke: #ffffff; stroke-width: 0.9"/>
    </g>
   </g>
   <g id="line2d_44">
    <path d="M 155.121015 229.74099 
L 352.304069 229.74099 
" clip-path="url(#p618a89a423)" style="fill: none; stroke: #101010; stroke-width: 1.5; stroke-linecap: round"/>
   </g>
   <g id="line2d_45">
    <path d="M 208.900656 229.74099 
L 278.689411 229.74099 
" clip-path="url(#p618a89a423)" style="fill: none; stroke: #101010; stroke-width: 4.5; stroke-linecap: round"/>
   </g>
   <g id="line2d_46">
    <path d="M 226.926763 229.74099 
" clip-path="url(#p618a89a423)" style="fill: none; stroke: #101010; stroke-width: 1.2; stroke-linecap: round"/>
    <g clip-path="url(#p618a89a423)">
     <use xlink:href="#mfbac49b159" x="226.926763" y="229.74099" style="fill: #ffffff; stroke: #ffffff; stroke-width: 0.9"/>
    </g>
   </g>
   <g id="line2d_47">
    <path d="M 158.029031 254.274323 
L 288.340946 254.274323 
" clip-path="url(#p618a89a423)" style="fill: none; stroke: #101010; stroke-width: 1.5; stroke-linecap: round"/>
   </g>
   <g id="line2d_48">
    <path d="M 200.382223 254.274323 
L 237.72921 254.274323 
" clip-path="url(#p618a89a423)" style="fill: none; stroke: #101010; stroke-width: 4.5; stroke-linecap: round"/>
   </g>
   <g id="line2d_49">
    <path d="M 222.069976 254.274323 
" clip-path="url(#p618a89a423)" style="fill: none; stroke: #101010; stroke-width: 1.2; stroke-linecap: round"/>
    <g clip-path="url(#p618a89a423)">
     <use xlink:href="#mfbac49b159" x="222.069976" y="254.274323" style="fill: #ffffff; stroke: #ffffff; stroke-width: 0.9"/>
    </g>
   </g>
   <g id="line2d_50">
    <path d="M 133.850479 278.807656 
L 350.691237 278.807656 
" clip-path="url(#p618a89a423)" style="fill: none; stroke: #101010; stroke-width: 1.5; stroke-linecap: round"/>
   </g>
   <g id="line2d_51">
    <path d="M 182.380505 278.807656 
L 261.423035 278.807656 
" clip-path="url(#p618a89a423)" style="fill: none; stroke: #101010; stroke-width: 4.5; stroke-linecap: round"/>
   </g>
   <g id="line2d_52">
    <path d="M 224.498761 278.807656 
" clip-path="url(#p618a89a423)" style="fill: none; stroke: #101010; stroke-width: 1.2; stroke-linecap: round"/>
    <g clip-path="url(#p618a89a423)">
     <use xlink:href="#mfbac49b159" x="224.498761" y="278.807656" style="fill: #ffffff; stroke: #ffffff; stroke-width: 0.9"/>
    </g>
   </g>
   <g id="line2d_53">
    <path d="M 140.510362 303.34099 
L 356.033251 303.34099 
" clip-path="url(#p618a89a423)" style="fill: none; stroke: #101010; stroke-width: 1.5; stroke-linecap: round"/>
   </g>
   <g id="line2d_54">
    <path d="M 203.859239 303.34099 
L 278.023729 303.34099 
" clip-path="url(#p618a89a423)" style="fill: none; stroke: #101010; stroke-width: 4.5; stroke-linecap: round"/>
   </g>
   <g id="line2d_55">
    <path d="M 246.283797 303.34099 
" clip-path="url(#p618a89a423)" style="fill: none; stroke: #101010; stroke-width: 1.2; stroke-linecap: round"/>
    <g clip-path="url(#p618a89a423)">
     <use xlink:href="#mfbac49b159" x="246.283797" y="303.34099" style="fill: #ffffff; stroke: #ffffff; stroke-width: 0.9"/>
    </g>
   </g>
   <g id="line2d_56">
    <path d="M 239.049698 315.607656 
L 239.049698 21.207656 
" clip-path="url(#p618a89a423)" style="fill: none; stroke-dasharray: 3.7,1.6; stroke-dashoffset: 0; stroke: #4b5563"/>
   </g>
   <g id="patch_3">
    <path d="M 85.484 315.607656 
L 85.484 21.207656 
" style="fill: none; stroke: #4b5563; stroke-width: 0.8; stroke-linejoin: miter; stroke-linecap: square"/>
   </g>
   <g id="patch_4">
    <path d="M 85.484 315.607656 
L 381.69025 315.607656 
" style="fill: none; stroke: #4b5563; stroke-width: 0.8; stroke-linejoin: miter; stroke-linecap: square"/>
   </g>
   <g id="text_21">
    <text style="font-weight: 700; font-size: 12px; font-family: 'Arial', 'DejaVu Sans', 'Liberation Sans', 'Bitstream Vera Sans', sans-serif; text-anchor: start; fill: #1a1a1a" x="61.7875" y="18.021031" transform="rotate(-0 61.7875 18.021031)">3f</text>
   </g>
   <g id="text_22">
    <text style="font-size: 11px; font-family: 'Arial', 'DejaVu Sans', 'Liberation Sans', 'Bitstream Vera Sans', sans-serif; text-anchor: middle; fill: #262626" x="233.587125" y="15.207656" transform="rotate(-0 233.587125 15.207656)">Age Correlation by Category</text>
   </g>
  </g>
 </g>
 <defs>
  <clipPath id="p618a89a423">
   <rect x="85.484" y="21.207656" width="296.20625" height="294.4"/>
  </clipPath>
 </defs>
</svg>
