<?xml version="1.0" encoding="utf-8" standalone="no"?>
<!DOCTYPE svg PUBLIC "-//W3C//DTD SVG 1.1//EN"
  "http://www.w3.org/Graphics/SVG/1.1/DTD/svg11.dtd">
<svg xmlns:xlink="http://www.w3.org/1999/xlink" width="340.34975pt" height="352.739906pt" viewBox="0 0 340.34975 352.739906" xmlns="http://www.w3.org/2000/svg" version="1.1">
 <metadata>
  <rdf:RDF xmlns:dc="http://purl.org/dc/elements/1.1/" xmlns:cc="http://creativecommons.org/ns#" xmlns:rdf="http://www.w3.org/1999/02/22-rdf-syntax-ns#">
   <cc:Work>
    <dc:type rdf:resource="http://purl.org/dc/dcmitype/StillImage"/>
    <dc:date>2026-07-03T12:49:35.294959</dc:date>
    <dc:format>image/svg+xml</dc:format>
    <dc:creator>
     <cc:Agent>
      <dc:title>Matplotlib v3.10.1, https://matplotlib.org/</dc:title>
     </cc:Agent>
    </dc:creator>
   </cc:Work>
  </rdf:RDF>
 </metadata>
 <defs>
  <style type="text/css">*{stroke-linejoin: round; stroke-linecap: butt}</style>
 </defs>
 <g id="figure_1">
  <g id="patch_1">
   <path d="M 0 352.739906 
L 340.34975 352.739906 
L 340.34975 0 
L 0 0 
z
" style="fill: #ffffff"/>
  </g>
  <g id="axes_1">
   <g id="patch_2">
    <path d="M 38.74975 315.607656 
L 333.14975 315.607656 
L 333.14975 21.207656 
L 38.74975 21.207656 
z
" style="fill: #ffffff"/>
   </g>
   <g id="matplotlib.axis_1">
    <g id="xtick_1">
     <g id="line2d_1">
      <defs>
       <path id="m3ee9d5612d" d="M 0 0 
L 0 5 
" style="stroke: #4b5563"/>
      </defs>
      <g>
       <use xlink:href="#m3ee9d5612d" x="45.461881" y="315.607656" style="fill: #4b5563; stroke: #4b5563"/>
      </g>
     </g>
     <g id="text_1">
      <text style="font-size: 8.8px; font-family: 'Arial', 'DejaVu Sans', 'Liberation Sans', 'Bitstream Vera Sans', sans-serif; text-anchor: middle; fill: #1a1a1a" x="45.461881" y="330.406531" transform="rotate(-0 45.461881 330.406531)">35</text>
     </g>
    </g>
    <g id="xtick_2">
     <g id="line2d_2">
      <g>
       <use xlink:href="#m3ee9d5612d" x="106.095402" y="315.607656" style="fill: #4b5563; stroke: #4b5563"/>
      </g>
     </g>
     <g id="text_2">
      <text style="font-size: 8.8px; font-family: 'Arial', 'DejaVu Sans', 'Liberation Sans', 'Bitstream Vera Sans', sans-serif; text-anchor: middle; fill: #1a1a1a" x="106.095402" y="330.406531" transform="rotate(-0 106.095402 330.406531)">40</text>
     </g>
    </g>
    <g id="xtick_3">
     <g id="line2d_3">
      <g>
       <use xlink:href="#m3ee9d5612d" x="166.728924" y="315.607656" style="fill: #4b5563; stroke: #4b5563"/>
      </g>
     </g>
     <g id="text_3">
      <text style="font-size: 8.8px; font-family: 'Arial', 'DejaVu Sans', 'Liberation Sans', 'Bitstream Vera Sans', sans-serif; text-anchor: middle; fill: #1a1a1a" x="166.728924" y="330.406531" transform="rotate(-0 166.728924 330.406531)">45</text>
     </g>
    </g>
    <g id="xtick_4">
     <g id="line2d_4">
      <g>
       <use xlink:href="#m3ee9d5612d" x="227.362445" y="315.607656" style="fill: #4b5563; stroke: #4b5563"/>
      </g>
     </g>
     <g id="text_4">
      <text style="font-size: 8.8px; font-family: 'Arial', 'DejaVu Sans', 'Liberation Sans', 'Bitstream Vera Sans', sans-serif; text-anchor: middle; fill: #1a1a1a" x="227.362445" y="330.406531" transform="rotate(-0 227.362445 330.406531)">50</text>
     </g>
    </g>
    <g id="xtick_5">
     <g id="line2d_5">
      <g>
       <use xlink:href="#m3ee9d5612d" x="287.995967" y="315.607656" style="fill: #4b5563; stroke: #4b5563"/>
      </g>
     </g>
     <g id="text_5">
      <text style="font-size: 8.8px; font-family: 'Arial', 'DejaVu Sans', 'Liberation Sans', 'Bitstream Vera Sans', sans-serif; text-anchor: middle; fill: #1a1a1a" x="287.995967" y="330.406531" transform="rotate(-0 287.995967 330.406531)">55</text>
     </g>
    </g>
    <g id="text_6">
     <text style="font-size: 10px; font-family: 'Arial', 'DejaVu Sans', 'Liberation Sans', 'Bitstream Vera Sans', sans-serif; text-anchor: middle; fill: #262626" x="185.94975" y="343.435219" transform="rotate(-0 185.94975 343.435219)">Chronological age</text>
    </g>
   </g>
   <g id="matplotlib.axis_2">
    <g id="ytick_1">
     <g id="line2d_6">
      <defs>
       <path id="m30216a69f1" d="M 0 0 
L -5 0 
" style="stroke: #4b5563"/>
      </defs>
      <g>
       <use xlink:href="#m30216a69f1" x="38.74975" y="308.895525" style="fill: #4b5563; stroke: #4b5563"/>
      </g>
     </g>
     <g id="text_7">
      <text style="font-size: 8.8px; font-family: 'Arial', 'DejaVu Sans', 'Liberation Sans', 'Bitstream Vera Sans', sans-serif; text-anchor: end; fill: #1a1a1a" x="30.24975" y="312.044963" transform="rotate(-0 30.24975 312.044963)">35</text>
     </g>
    </g>
    <g id="ytick_2">
     <g id="line2d_7">
      <g>
       <use xlink:href="#m30216a69f1" x="38.74975" y="248.262004" style="fill: #4b5563; stroke: #4b5563"/>
      </g>
     </g>
     <g id="text_8">
      <text style="font-size: 8.8px; font-family: 'Arial', 'DejaVu Sans', 'Liberation Sans', 'Bitstream Vera Sans', sans-serif; text-anchor: end; fill: #1a1a1a" x="30.24975" y="251.411441" transform="rotate(-0 30.24975 251.411441)">40</text>
     </g>
    </g>
    <g id="ytick_3">
     <g id="line2d_8">
      <g>
       <use xlink:href="#m30216a69f1" x="38.74975" y="187.628483" style="fill: #4b5563; stroke: #4b5563"/>
      </g>
     </g>
     <g id="text_9">
      <text style="font-size: 8.8px; font-family: 'Arial', 'DejaVu Sans', 'Liberation Sans', 'Bitstream Vera Sans', sans-serif; text-anchor: end; fill: #1a1a1a" x="30.24975" y="190.77792" transform="rotate(-0 30.24975 190.77792)">45</text>
     </g>
    </g>
    <g id="ytick_4">
     <g id="line2d_9">
      <g>
       <use xlink:href="#m30216a69f1" x="38.74975" y="126.994961" style="fill: #4b5563; stroke: #4b5563"/>
      </g>
     </g>
     <g id="text_10">
      <text style="font-size: 8.8px; font-family: 'Arial', 'DejaVu Sans', 'Liberation Sans', 'Bitstream Vera Sans', sans-serif; text-anchor: end; fill: #1a1a1a" x="30.24975" y="130.144399" transform="rotate(-0 30.24975 130.144399)">50</text>
     </g>
    </g>
    <g id="ytick_5">
     <g id="line2d_10">
      <g>
       <use xlink:href="#m30216a69f1" x="38.74975" y="66.36144" style="fill: #4b5563; stroke: #4b5563"/>
      </g>
     </g>
     <g id="text_11">
      <text style="font-size: 8.8px; font-family: 'Arial', 'DejaVu Sans', 'Liberation Sans', 'Bitstream Vera Sans', sans-serif; text-anchor: end; fill: #1a1a1a" x="30.24975" y="69.510877" transform="rotate(-0 30.24975 69.510877)">55</text>
     </g>
    </g>
    <g id="text_12">
     <text style="font-size: 10px; font-family: 'Arial', 'DejaVu Sans', 'Liberation Sans', 'Bitstream Vera Sans', sans-serif; text-anchor: middle; fill: #262626" x="14.357813" y="168.407656" transform="rotate(-90 14.357813 168.407656)">Predicted age</text>
    </g>
   </g>
   <g id="PathCollection_1">
    <defs>
     <path id="mc1c377db27" d="M 0 2.44949 
C 0.649612 2.44949 1.272706 2.191396 1.732051 1.732051 
C 2.191396 1.272706 2.44949 0.649612 2.44949 0 
C 2.44949 -0.649612 2.191396 -1.272706 1.732051 -1.732051 
C 1.272706 -2.191396 0.649612 -2.44949 0 -2.44949 
C -0.649612 -2.44949 -1.272706 -2.191396 -1.732051 -1.732051 
C -2.191396 -1.272706 -2.44949 -0.649612 -2.44949 0 
C -2.44949 0.649612 -2.191396 1.272706 -1.732051 1.732051 
C -1.272706 2.191396 -0.649612 2.44949 0 2.44949 
z
" style="stroke: #ffffff; stroke-opacity: 0.6; stroke-width: 0.3"/>
    </defs>
    <g clip-path="url(#p3fe8dd924d)">
     <use xlink:href="#mc1c377db27" x="186.859253" y="141.571719" style="fill: #2a7f7f; fill-opacity: 0.6; stroke: #ffffff; stroke-opacity: 0.6; stroke-width: 0.3"/>
     <use xlink:href="#mc1c377db27" x="292.846648" y="112.178041" style="fill: #2a7f7f; fill-opacity: 0.6; stroke: #ffffff; stroke-opacity: 0.6; stroke-width: 0.3"/>
     <use xlink:href="#mc1c377db27" x="319.767932" y="62.028099" style="fill: #2a7f7f; fill-opacity: 0.6; stroke: #ffffff; stroke-opacity: 0.6; stroke-width: 0.3"/>
     <use xlink:href="#mc1c377db27" x="52.131568" y="104.386749" style="fill: #2a7f7f; fill-opacity: 0.6; stroke: #ffffff; stroke-opacity: 0.6; stroke-width: 0.3"/>
    </g>
   </g>
   <g id="line2d_11">
    <path d="M 52.131568 302.225838 
L 319.767932 34.589474 
" clip-path="url(#p3fe8dd924d)" style="fill: none; stroke-dasharray: 4.44,1.92; stroke-dashoffset: 0; stroke: #d9d9d9; stroke-width: 1.2"/>
   </g>
   <g id="line2d_12">
    <path d="M 52.131568 122.708315 
L 54.834966 122.411236 
L 57.538363 122.114156 
L 60.241761 121.817077 
L 62.945159 121.519998 
L 65.648556 121.222919 
L 68.351954 120.925839 
L 71.055351 120.62876 
L 73.758749 120.331681 
L 76.462147 120.034602 
L 79.165544 119.737522 
L 81.868942 119.440443 
L 84.57234 119.143364 
L 87.275737 118.846285 
L 89.979135 118.549205 
L 92.682532 118.252126 
L 95.38593 117.955047 
L 98.089328 117.657968 
L 100.792725 117.360888 
L 103.496123 117.063809 
L 106.19952 116.76673 
L 108.902918 116.469651 
L 111.606316 116.172571 
L 114.309713 115.875492 
L 117.013111 115.578413 
L 119.716508 115.281334 
L 122.419906 114.984254 
L 125.123304 114.687175 
L 127.826701 114.390096 
L 130.530099 114.093017 
L 133.233497 113.795937 
L 135.936894 113.498858 
L 138.640292 113.201779 
L 141.343689 112.9047 
L 144.047087 112.60762 
L 146.750485 112.310541 
L 149.453882 112.013462 
L 152.15728 111.716383 
L 154.860677 111.419303 
L 157.564075 111.122224 
L 160.267473 110.825145 
L 162.97087 110.528066 
L 165.674268 110.230987 
L 168.377666 109.933907 
L 171.081063 109.636828 
L 173.784461 109.339749 
L 176.487858 109.04267 
L 179.191256 108.74559 
L 181.894654 108.448511 
L 184.598051 108.151432 
L 187.301449 107.854353 
L 190.004846 107.557273 
L 192.708244 107.260194 
L 195.411642 106.963115 
L 198.115039 106.666036 
L 200.818437 106.368956 
L 203.521834 106.071877 
L 206.225232 105.774798 
L 208.92863 105.477719 
L 211.632027 105.180639 
L 214.335425 104.88356 
L 217.038823 104.586481 
L 219.74222 104.289402 
L 222.445618 103.992322 
L 225.149015 103.695243 
L 227.852413 103.398164 
L 230.555811 103.101085 
L 233.259208 102.804005 
L 235.962606 102.506926 
L 238.666003 102.209847 
L 241.369401 101.912768 
L 244.072799 101.615688 
L 246.776196 101.318609 
L 249.479594 101.02153 
L 252.182992 100.724451 
L 254.886389 100.427371 
L 257.589787 100.130292 
L 260.293184 99.833213 
L 262.996582 99.536134 
L 265.69998 99.239055 
L 268.403377 98.941975 
L 271.106775 98.644896 
L 273.810172 98.347817 
L 276.51357 98.050738 
L 279.216968 97.753658 
L 281.920365 97.456579 
L 284.623763 97.1595 
L 287.32716 96.862421 
L 290.030558 96.565341 
L 292.733956 96.268262 
L 295.437353 95.971183 
L 298.140751 95.674104 
L 300.844149 95.377024 
L 303.547546 95.079945 
L 306.250944 94.782866 
L 308.954341 94.485787 
L 311.657739 94.188707 
L 314.361137 93.891628 
L 317.064534 93.594549 
L 319.767932 93.29747 
" clip-path="url(#p3fe8dd924d)" style="fill: none; stroke: #d07c4e; stroke-width: 2.2; stroke-linecap: round"/>
   </g>
   <g id="patch_3">
    <path d="M 38.74975 315.607656 
L 38.74975 21.207656 
" style="fill: none; stroke: #4b5563; stroke-width: 0.8; stroke-linejoin: miter; stroke-linecap: square"/>
   </g>
   <g id="patch_4">
    <path d="M 38.74975 315.607656 
L 333.14975 315.607656 
" style="fill: none; stroke: #4b5563; stroke-width: 0.8; stroke-linejoin: miter; stroke-linecap: square"/>
   </g>
   <g id="text_13">
    <text style="font-weight: 700; font-size: 12px; font-family: 'Arial', 'DejaVu Sans', 'Liberation Sans', 'Bitstream Vera Sans', sans-serif; text-anchor: start; fill: #1a1a1a" x="15.19775" y="18.021031" transform="rotate(-0 15.19775 18.021031)">2a</text>
   </g>
   <g id="text_14">
    <text style="font-size: 11px; font-family: 'Arial', 'DejaVu Sans', 'Liberation Sans', 'Bitstream Vera Sans', sans-serif; text-anchor: middle; fill: #262626" x="185.94975" y="15.207656" transform="rotate(-0 185.94975 15.207656)">Predicted vs Chronological Age</text>
   </g>
  </g>
 </g>
 <defs>
  <clipPath id="p3fe8dd924d">
   <rect x="38.74975" y="21.207656" width="294.4" height="294.4"/>
  </clipPath>
 </defs>
</svg>
